<?xml version="1.0" encoding="utf-8"?>
<!-- Generator: Adobe Illustrator 17.0.0, SVG Export Plug-In . SVG Version: 6.00 Build 0)  -->
<!DOCTYPE svg PUBLIC "-//W3C//DTD SVG 1.1//EN" "http://www.w3.org/Graphics/SVG/1.1/DTD/svg11.dtd">
<svg version="1.1" id="Layer_1" xmlns="http://www.w3.org/2000/svg" xmlns:xlink="http://www.w3.org/1999/xlink" x="0px" y="0px"
	 width="55.512px" height="52.031px" viewBox="0 0 55.512 52.031" enable-background="new 0 0 55.512 52.031" xml:space="preserve">
<path d="M51.187,35.543l2.497,5.203c1.218,2.509,1.828,4.934,1.828,7.277v4.008H0v-4.008c0-2.32,0.61-4.746,1.829-7.277l2.496-5.203
	H51.187z M50.051,37.265H5.324l-2.202,4.759c-0.933,2.022-1.399,3.654-1.399,4.901v3.383h52.066v-1.303
	c0-2.351-0.536-4.701-1.607-7.051L50.051,37.265z M51.187,33.82H4.324V0h46.863V33.82z M49.465,1.722H6.048v30.375h43.417V1.722z
	 M7.77,25.031V8.789c0-2.391,0.293-3.879,0.881-4.465c0.586-0.585,2.1-0.879,4.543-0.879h29.124c2.442,0,3.956,0.294,4.543,0.879
	c0.587,0.586,0.881,2.074,0.881,4.465v16.242c0,2.368-0.3,3.845-0.898,4.43c-0.599,0.586-2.107,0.879-4.526,0.879H13.194
	c-2.419,0-3.927-0.293-4.526-0.879C8.07,28.876,7.77,27.399,7.77,25.031 M8.016,39.445h4.324v1.723h4.43v-1.723h4.254v1.723h4.394
	v-1.723h4.289v1.723h4.395v-1.723h4.289v1.723h4.359v-1.723h4.324v1.723h-4.289v1.793h4.289v1.652H42.75v-1.652h-4.359v1.652h-4.289
	v-1.652h-4.43v1.652h-4.254v-1.652h-4.394v1.652H16.77v-1.652h-4.43v1.652H8.016V42.89h4.289v-1.722H8.016V39.445z M9.493,8.795
	v16.196c0,1.619,0.205,2.629,0.616,3.028s1.438,0.598,3.082,0.598h29.025c1.69,0,2.747-0.193,3.17-0.58
	c0.422-0.388,0.633-1.367,0.633-2.941V8.724c0-1.573-0.217-2.558-0.652-2.958c-0.434-0.398-1.485-0.598-3.151-0.598H13.191
	c-1.644,0-2.671,0.194-3.082,0.581C9.698,6.137,9.493,7.151,9.493,8.795 M16.7,42.89h4.324v-1.652H16.7V42.89z M25.418,42.89h4.289
	v-1.652h-4.289V42.89z M34.102,42.89h4.289v-1.652h-4.289V42.89z"/>
</svg>
