<?xml version="1.0" encoding="utf-8"?>
<!-- Generator: Adobe Illustrator 17.0.0, SVG Export Plug-In . SVG Version: 6.00 Build 0)  -->
<!DOCTYPE svg PUBLIC "-//W3C//DTD SVG 1.1//EN" "http://www.w3.org/Graphics/SVG/1.1/DTD/svg11.dtd">
<svg version="1.1" id="Layer_1" xmlns="http://www.w3.org/2000/svg" xmlns:xlink="http://www.w3.org/1999/xlink" x="0px" y="0px"
	 width="52.031px" height="53.789px" viewBox="278.641 368.239 52.031 53.789"
	 enable-background="new 278.641 368.239 52.031 53.789" xml:space="preserve">
<path d="M323.745,415.067h-6.926v6.961h-38.179v-39.902h6.925v-6.961h6.961v-6.926h38.145v39.903h-6.926V415.067z M315.098,383.849
	h-34.734v36.457h34.734V383.849z M285.565,390.81h24.293v1.723h-24.293V390.81z M285.565,397.735h24.293v1.723h-24.293V397.735z
	 M285.565,404.696h24.293v1.723h-24.293V404.696z M285.565,411.622h24.293v1.723h-24.293V411.622z M287.288,376.888v5.238h29.531
	v31.219h5.203v-36.457H287.288z M294.25,369.962v5.203h29.496v31.254h5.203v-36.457H294.25z"/>
</svg>
