<?xml version="1.0" encoding="utf-8"?>
<!-- Generator: Adobe Illustrator 17.0.0, SVG Export Plug-In . SVG Version: 6.00 Build 0)  -->
<!DOCTYPE svg PUBLIC "-//W3C//DTD SVG 1.1//EN" "http://www.w3.org/Graphics/SVG/1.1/DTD/svg11.dtd">
<svg version="1.1" id="Layer_1" xmlns="http://www.w3.org/2000/svg" xmlns:xlink="http://www.w3.org/1999/xlink" x="0px" y="0px"
	 width="52.031px" height="52.031px" viewBox="7.163 0.262 52.031 52.031" enable-background="new 7.163 0.262 52.031 52.031"
	 xml:space="preserve">
<path d="M7.163,45.356V3.706c0-0.96,0.339-1.774,1.019-2.442c0.68-0.668,1.5-1.002,2.461-1.002h45.106
	c0.96,0,1.775,0.334,2.443,1.002c0.668,0.668,1.002,1.482,1.002,2.443v45.106c0,0.961-0.334,1.781-1.002,2.461
	c-0.668,0.68-1.483,1.019-2.443,1.019H14.088L7.163,45.356z M45.342,50.57h10.407c0.585,0,1.019-0.145,1.3-0.439
	c0.282-0.293,0.422-0.721,0.422-1.283V3.707c0-1.147-0.574-1.723-1.722-1.723h-5.204v20.783c0,0.96-0.339,1.779-1.019,2.458
	c-0.68,0.678-1.5,1.017-2.461,1.017H19.291c-0.96,0-1.775-0.339-2.443-1.017c-0.668-0.679-1.002-1.498-1.002-2.458V1.984h-5.203
	c-1.172,0-1.758,0.575-1.758,1.723v40.944l5.906,5.919h6.258V34.961c0-1.172,0.575-1.758,1.723-1.758h20.812
	c1.172,0,1.758,0.586,1.758,1.758V50.57z M48.823,1.984H17.569v20.813c0,0.562,0.146,0.99,0.44,1.283
	c0.293,0.294,0.721,0.44,1.284,0.44h27.805c1.15,0,1.725-0.585,1.725-1.755V1.984z M31.456,34.926h-8.684v15.645h8.684V34.926z"/>
</svg>
