<?xml version="1.0" encoding="utf-8"?>
<!-- Generator: Adobe Illustrator 17.0.0, SVG Export Plug-In . SVG Version: 6.00 Build 0)  -->
<!DOCTYPE svg PUBLIC "-//W3C//DTD SVG 1.1//EN" "http://www.w3.org/Graphics/SVG/1.1/DTD/svg11.dtd">
<svg version="1.1" id="Layer_1" xmlns="http://www.w3.org/2000/svg" xmlns:xlink="http://www.w3.org/1999/xlink" x="0px" y="0px"
	 width="84.657px" height="52.032px" viewBox="0 0 84.657 52.032" enable-background="new 0 0 84.657 52.032" xml:space="preserve">
<path d="M0,52.032V11.286c0-2.906,1.441-4.36,4.324-4.36h2.004c1.008,0,1.722-0.158,2.144-0.474c0.422-0.317,0.75-0.932,0.985-1.846
	L9.808,3.2c0.375-1.477,0.856-2.378,1.442-2.707C11.812,0.164,13.172,0,15.328,0h13.429c1.946,0,3.188,0.154,3.727,0.457
	c0.539,0.305,1.008,1.125,1.406,2.461l0.387,1.301c0.398,1.336,0.768,2.122,1.107,2.356c0.34,0.234,1.284,0.351,2.831,0.351h24.292
	c1.665,0,2.795,0.312,3.393,0.932c0.598,0.621,0.897,1.788,0.897,3.498v3.375h13.957c2.531,0,3.832,0.445,3.902,1.336
	c0.023,0.188-0.387,1.138-1.231,2.847L66.797,52.032L0,52.032L0,52.032z M1.722,48.446L16.84,18.985
	c1.101-2.132,1.957-3.375,2.566-3.727c0.609-0.351,2.191-0.527,4.746-0.527h40.922v-3.375c0-1.805-0.879-2.707-2.637-2.707H38.004
	c-2.204,0-3.563-0.128-4.079-0.387c-0.515-0.258-0.937-1.055-1.265-2.391l-0.422-1.617c-0.305-1.147-0.65-1.857-1.037-2.127
	c-0.387-0.268-1.248-0.404-2.584-0.404H15.609c-1.5,0-2.508,0.141-3.023,0.422C12.07,2.45,11.672,3.107,11.39,4.114l-0.422,1.617
	c-0.375,1.336-0.791,2.157-1.248,2.461S8.25,8.649,6.679,8.649H4.5c-1.125,0-1.869,0.171-2.233,0.51
	c-0.363,0.339-0.545,1.06-0.545,2.162V48.446z M2.777,50.309h62.895L81.246,19.09c0.515-1.125,0.773-1.758,0.773-1.898
	c-0.07-0.492-0.797-0.738-2.179-0.738H23.097c-1.359,0-2.297,0.153-2.812,0.457c-0.516,0.304-1.043,0.997-1.582,2.074L2.777,50.309z
	"/>
</svg>
