<?xml version="1.0" encoding="utf-8"?>
<!-- Generator: Adobe Illustrator 17.0.0, SVG Export Plug-In . SVG Version: 6.00 Build 0)  -->
<!DOCTYPE svg PUBLIC "-//W3C//DTD SVG 1.1//EN" "http://www.w3.org/Graphics/SVG/1.1/DTD/svg11.dtd">
<svg version="1.1" id="Layer_1" xmlns="http://www.w3.org/2000/svg" xmlns:xlink="http://www.w3.org/1999/xlink" x="0px" y="0px"
	 width="84.657px" height="52.032px" viewBox="262.708 369.195 84.657 52.032"
	 enable-background="new 262.708 369.195 84.657 52.032" xml:space="preserve">
<path d="M262.708,421.227v-40.746c0-2.906,1.441-4.36,4.324-4.36h2.004c1.008,0,1.722-0.158,2.144-0.474
	c0.422-0.317,0.75-0.932,0.985-1.846l0.351-1.406c0.375-1.477,0.856-2.378,1.442-2.707c0.562-0.329,1.922-0.493,4.078-0.493h13.429
	c1.946,0,3.188,0.154,3.727,0.457c0.539,0.305,1.008,1.125,1.406,2.461l0.387,1.301c0.398,1.336,0.768,2.122,1.107,2.356
	c0.34,0.234,1.284,0.351,2.831,0.351h24.292c1.665,0,2.795,0.312,3.393,0.932c0.598,0.621,0.897,1.788,0.897,3.498v3.375h13.957
	c2.531,0,3.832,0.445,3.902,1.336c0.023,0.188-0.387,1.138-1.231,2.847l-16.628,33.118H262.708z M264.43,417.641l15.118-29.461
	c1.101-2.132,1.957-3.375,2.566-3.727c0.609-0.351,2.191-0.527,4.746-0.527h40.922v-3.375c0-1.805-0.879-2.707-2.637-2.707h-24.433
	c-2.204,0-3.563-0.128-4.079-0.387c-0.515-0.258-0.937-1.055-1.265-2.391l-0.422-1.617c-0.305-1.147-0.65-1.857-1.037-2.127
	c-0.387-0.268-1.248-0.404-2.584-0.404h-13.008c-1.5,0-2.508,0.141-3.023,0.422c-0.516,0.305-0.914,0.962-1.196,1.969l-0.422,1.617
	c-0.375,1.336-0.791,2.157-1.248,2.461c-0.457,0.304-1.47,0.457-3.041,0.457h-2.179c-1.125,0-1.869,0.171-2.233,0.51
	c-0.363,0.339-0.545,1.06-0.545,2.162V417.641z M265.485,419.504h62.895l15.574-31.219c0.515-1.125,0.773-1.758,0.773-1.898
	c-0.07-0.492-0.797-0.738-2.179-0.738h-56.743c-1.359,0-2.297,0.153-2.812,0.457c-0.516,0.304-1.043,0.997-1.582,2.074
	L265.485,419.504z"/>
</svg>
