<?xml version="1.0" encoding="utf-8"?>
<!-- Generator: Adobe Illustrator 17.0.0, SVG Export Plug-In . SVG Version: 6.00 Build 0)  -->
<!DOCTYPE svg PUBLIC "-//W3C//DTD SVG 1.1//EN" "http://www.w3.org/Graphics/SVG/1.1/DTD/svg11.dtd">
<svg version="1.1" id="Layer_1" xmlns="http://www.w3.org/2000/svg" xmlns:xlink="http://www.w3.org/1999/xlink" x="0px" y="0px"
	 width="54.668px" height="54.633px" viewBox="6.361 -1.046 54.668 54.633" enable-background="new 6.361 -1.046 54.668 54.633"
	 xml:space="preserve">
<path d="M33.695,53.587c-7.552,0-13.995-2.666-19.331-7.998C9.029,40.258,6.361,33.817,6.361,26.27
	c0-7.546,2.668-13.986,8.003-19.318C19.7,1.621,26.143-1.046,33.695-1.046s13.995,2.667,19.33,7.998
	c5.336,5.332,8.004,11.772,8.004,19.318c0,7.547-2.668,13.988-8.004,19.319C47.69,50.921,41.247,53.587,33.695,53.587
	 M33.695,50.106c6.591,0,12.214-2.324,16.869-6.972c4.656-4.65,6.984-10.264,6.984-16.846c0-6.581-2.328-12.202-6.984-16.862
	c-4.655-4.661-10.278-6.992-16.869-6.992s-12.214,2.331-16.87,6.992c-4.657,4.66-6.984,10.281-6.984,16.862
	c0,6.582,2.327,12.196,6.984,16.846C21.481,47.782,27.104,50.106,33.695,50.106 M17.646,27.782h2.145
	c1.712,7.524,6.347,11.285,13.904,11.285c7.556,0,12.191-3.761,13.904-11.285h2.18c-0.54,4.875-2.236,8.696-5.086,11.461
	c-2.852,2.766-6.517,4.148-10.998,4.148c-4.482,0-8.142-1.382-10.981-4.148C19.875,36.478,18.185,32.657,17.646,27.782
	 M24.994,21.911c-1.196,0-2.215-0.422-3.059-1.266c-0.844-0.843-1.266-1.863-1.266-3.058c0-1.196,0.422-2.215,1.266-3.059
	c0.844-0.844,1.863-1.265,3.059-1.265c1.218,0,2.25,0.421,3.093,1.265c0.844,0.844,1.266,1.863,1.266,3.059
	c0,1.195-0.428,2.215-1.283,3.058C27.214,21.489,26.189,21.911,24.994,21.911 M42.396,21.911c-1.195,0-2.221-0.422-3.076-1.266
	c-0.856-0.843-1.283-1.863-1.283-3.058c0-1.196,0.427-2.215,1.283-3.059c0.855-0.844,1.881-1.265,3.076-1.265
	c1.195,0,2.215,0.421,3.059,1.265c0.843,0.844,1.265,1.863,1.265,3.059c0,1.195-0.422,2.215-1.265,3.058
	C44.611,21.489,43.591,21.911,42.396,21.911"/>
</svg>
