<?xml version="1.0" encoding="utf-8"?>
<!-- Generator: Adobe Illustrator 24.0.2, SVG Export Plug-In . SVG Version: 6.00 Build 0)  -->
<svg version="1.1" id="Layer_1" xmlns="http://www.w3.org/2000/svg" xmlns:xlink="http://www.w3.org/1999/xlink" x="0px" y="0px"
	 width="110.7px" height="54.633px" viewBox="0 0 110.7 54.6" style="enable-background:new 0 0 110.7 54.6;" xml:space="preserve">
<path d="M27.3,54.6c-7.6,0-14-2.7-19.3-8c-5.3-5.3-8-11.8-8-19.3c0-7.5,2.7-14,8-19.3c5.3-5.3,11.8-8,19.3-8s14,2.7,19.3,8
	c5.3,5.3,8,11.8,8,19.3c0,7.5-2.7,14-8,19.3C41.3,52,34.9,54.6,27.3,54.6 M27.3,51.2c6.6,0,12.2-2.3,16.9-7c4.7-4.7,7-10.3,7-16.8
	c0-6.6-2.3-12.2-7-16.9c-4.7-4.7-10.3-7-16.9-7s-12.2,2.3-16.9,7c-4.7,4.7-7,10.3-7,16.9c0,6.6,2.3,12.2,7,16.8
	C15.1,48.8,20.7,51.2,27.3,51.2 M11.3,28.8h2.1c1.7,7.5,6.3,11.3,13.9,11.3c7.6,0,12.2-3.8,13.9-11.3h2.2c-0.5,4.9-2.2,8.7-5.1,11.5
	c-2.9,2.8-6.5,4.1-11,4.1c-4.5,0-8.1-1.4-11-4.1C13.5,37.5,11.8,33.7,11.3,28.8 M18.6,23c-1.2,0-2.2-0.4-3.1-1.3
	c-0.8-0.8-1.3-1.9-1.3-3.1c0-1.2,0.4-2.2,1.3-3.1s1.9-1.3,3.1-1.3c1.2,0,2.2,0.4,3.1,1.3c0.8,0.8,1.3,1.9,1.3,3.1
	c0,1.2-0.4,2.2-1.3,3.1C20.9,22.5,19.8,23,18.6,23 M36,23c-1.2,0-2.2-0.4-3.1-1.3c-0.9-0.8-1.3-1.9-1.3-3.1c0-1.2,0.4-2.2,1.3-3.1
	c0.9-0.8,1.9-1.3,3.1-1.3s2.2,0.4,3.1,1.3c0.8,0.8,1.3,1.9,1.3,3.1c0,1.2-0.4,2.2-1.3,3.1C38.2,22.5,37.2,23,36,23"/>
<path d="M83.3,54.6c-7.6,0-14-2.7-19.3-8c-5.3-5.3-8-11.8-8-19.3c0-7.5,2.7-14,8-19.3c5.3-5.3,11.8-8,19.3-8s14,2.7,19.3,8
	c5.3,5.3,8,11.8,8,19.3c0,7.5-2.7,14-8,19.3C97.3,52,90.9,54.6,83.3,54.6 M83.3,51.2c6.6,0,12.2-2.3,16.9-7c4.7-4.7,7-10.3,7-16.8
	c0-6.6-2.3-12.2-7-16.9c-4.7-4.7-10.3-7-16.9-7s-12.2,2.3-16.9,7c-4.7,4.7-7,10.3-7,16.9c0,6.6,2.3,12.2,7,16.8
	C71.1,48.8,76.7,51.2,83.3,51.2 M74.6,23c-1.2,0-2.2-0.4-3.1-1.3c-0.8-0.8-1.3-1.9-1.3-3.1c0-1.2,0.4-2.2,1.3-3.1s1.9-1.3,3.1-1.3
	c1.2,0,2.2,0.4,3.1,1.3c0.8,0.8,1.3,1.9,1.3,3.1c0,1.2-0.4,2.2-1.3,3.1C76.9,22.5,75.8,23,74.6,23 M92,23c-1.2,0-2.2-0.4-3.1-1.3
	c-0.9-0.8-1.3-1.9-1.3-3.1c0-1.2,0.4-2.2,1.3-3.1c0.9-0.8,1.9-1.3,3.1-1.3c1.2,0,2.2,0.4,3.1,1.3c0.8,0.8,1.3,1.9,1.3,3.1
	c0,1.2-0.4,2.2-1.3,3.1C94.2,22.5,93.2,23,92,23 M83.6,44.4c-2.4,0-4.5-0.9-6.2-2.6c-1.7-1.7-2.6-3.8-2.6-6.2c0-2.4,0.9-4.5,2.6-6.2
	c1.7-1.7,3.8-2.6,6.2-2.6c2.5,0,4.6,0.9,6.3,2.6c1.7,1.7,2.6,3.8,2.6,6.2c0,2.4-0.9,4.5-2.6,6.2C88.1,43.6,86,44.4,83.6,44.4"/>
</svg>
