<?xml version="1.0" encoding="utf-8"?>
<!-- Generator: Adobe Illustrator 17.0.0, SVG Export Plug-In . SVG Version: 6.00 Build 0)  -->
<!DOCTYPE svg PUBLIC "-//W3C//DTD SVG 1.1//EN" "http://www.w3.org/Graphics/SVG/1.1/DTD/svg11.dtd">
<svg version="1.1" id="Layer_1" xmlns="http://www.w3.org/2000/svg" xmlns:xlink="http://www.w3.org/1999/xlink" x="0px" y="0px"
	 width="65.074px" height="53.332px" viewBox="0 0 65.074 53.332" enable-background="new 0 0 65.074 53.332" xml:space="preserve">
<path fill="#010101" d="M12.094,19.512h44.291c4.198,0,6.695,0.399,7.493,1.195c0.798,0.797,1.196,3.282,1.196,7.453v16.488
	c0,4.102-0.427,6.575-1.283,7.418c-0.855,0.844-3.322,1.266-7.4,1.266H8.684c-3.938,0-6.37-0.462-7.295-1.389
	C0.463,51.018,0,48.586,0,44.648V28.16c0-3.889,0.36-6.315,1.081-7.277c0.721-0.961,2.557-1.442,5.51-1.442l2.022,0.071v-0.668
	c0-3.563,1.085-6.557,3.255-8.983c2.17-2.425,4.863-3.638,8.076-3.638c1.526,0,3.214,0.258,5.068,0.773l1.549,0.457
	c2.041,0.586,4.968,2.43,6.17,1.568c4.266-3.061-3.722-2.564-2.174-6.314C31.285,0.902,32.023,0,32.774,0
	c1.079,0,2.265,0.74,1.619,1.512c-1.787,2.134,3.213,2.509,2.588,6.384c-0.622,3.854-1.215,3.917-4.989,3.917
	c-1.289,0-3.316-0.317-6.082-0.95l-1.863-0.422c-2.039-0.492-3.492-0.738-4.359-0.738c-2.086,0-3.874,0.892-5.362,2.672
	c-1.488,1.781-2.232,3.902-2.232,6.363V19.512z M56.422,21.234H8.688c-3.424,0-5.441,0.306-6.05,0.915
	c-0.611,0.611-0.915,2.618-0.915,6.02v16.472c0,3.425,0.304,5.444,0.915,6.053c0.609,0.611,2.626,0.915,6.05,0.915h47.734
	c3.424,0,5.434-0.304,6.032-0.915c0.598-0.609,0.898-2.628,0.898-6.053V28.169c0-3.402-0.305-5.409-0.915-6.02
	C61.827,21.54,59.822,21.234,56.422,21.234 M8.613,26.332h4.325v4.324h4.359v-4.324h4.394v4.324h4.29v-4.324h4.394v4.324h4.324
	v-4.324h4.324v4.324h4.325v-4.324h4.324v4.324h4.359v-4.324h4.325v4.395h-4.29v4.359h4.29v4.324h-4.325v-4.254h-4.359v4.254h-4.324
	v-4.254h-4.325v4.254h-4.324v-4.254h-4.324v4.254h-4.394v-4.254h-4.29v4.254h-4.394v-4.254h-4.359v4.254H8.613v-4.324h4.289v-4.359
	H8.613V26.332z M17.297,42.082h30.375v4.324H17.297V42.082z M17.332,35.086h4.289v-4.359h-4.289V35.086z M26.016,35.086h4.324
	v-4.359h-4.324V35.086z M34.734,35.086h4.254v-4.359h-4.254V35.086z M43.383,35.086h4.254v-4.359h-4.254V35.086z"/>
</svg>
