<?xml version="1.0" encoding="utf-8"?>
<!-- Generator: Adobe Illustrator 24.0.2, SVG Export Plug-In . SVG Version: 6.00 Build 0)  -->
<svg version="1.1" id="Layer_1" xmlns="http://www.w3.org/2000/svg" xmlns:xlink="http://www.w3.org/1999/xlink" x="0px" y="0px"
	 viewBox="0 0 367.9 93.4" style="enable-background:new 0 0 367.9 93.4;" xml:space="preserve">
<style type="text/css">
	.st0{fill:none;stroke:#010101;stroke-miterlimit:10;}
	.st1{fill:#010101;}
</style>
<path class="st0" d="M17.5,45.4h62.2c5.9,0,9.4,0.6,10.5,1.7s1.7,4.6,1.7,10.5v23.1c0,5.8-0.6,9.2-1.8,10.4
	c-1.2,1.2-4.7,1.8-10.4,1.8h-67c-5.5,0-8.9-0.6-10.2-1.9c-1.4-1.4-2-4.8-2-10.3V57.5C0.5,52,1,48.6,2,47.3s3.6-2,7.7-2l2.8,0.1v-0.9
	c0-5,1.5-9.2,4.6-12.6c3-3.4,6.8-1.1,11.3-1.1c2.1,0,4.5,4.4,7.1,5.1l2.2,0.6c2.9,0.8,7,3.4,8.7,2.2c6-4.3-5.2-3.6-3.1-8.9
	c1.1-2.5,2.1-3.8,3.2-3.8c1.5,0,3.2,1,2.3,2.1c-2.5,3,4.5,3.5,3.6,9c-0.9,5.4-1.7,5.5-7,5.5c-1.8,0-4.7-0.4-8.5-1.3l-2.6-0.6
	c-2.9-0.7-4.9-5-6.1-5c-2.9,0-5.4-2.7-7.5-0.2c-2.2,2.4-3.2,5.3-3.2,8.8V45.4z M79.7,47.8h-67c-4.8,0-7.6,0.4-8.5,1.3
	c-0.9,0.9-1.3,3.7-1.3,8.5v23.1c0,4.8,0.4,7.6,1.3,8.5s3.7,1.3,8.5,1.3h67c4.8,0,7.6-0.4,8.5-1.3c0.8-0.9,1.3-3.7,1.3-8.5V57.5
	c0-4.8-0.4-7.6-1.3-8.5C87.3,48.2,84.5,47.8,79.7,47.8 M12.6,55h6.1v6h6.1v-6H31v6h6v-6h6.2v6h6.1v-6h6.1v6h6.1v-6h6.1v6h5.9v-6h6.1
	v6.2h-6v6.1h6v6.1h-6.1v-6h-6.1v6h-6.1v-6h-6.1v6h-6.1v-6H43v6h-6.2v-6h-6v6h-6.2v-6h-6.1v6h-6.1v-6.1h6v-6.1h-6V55H12.6z
	 M24.8,77.1h42.6v6.1H24.8V77.1z M24.8,67.2h6v-6.1h-6V67.2z M37,67.2h6.1v-6.1H37V67.2z M49.3,67.2h6v-6.1h-6V67.2z M61.4,67.2h6
	v-6.1h-6V67.2z"/>
<path class="st1" d="M109.5,40.4h62.2c5.9,0,9.4,0.6,10.5,1.7s1.7,4.6,1.7,10.5v23.1c0,5.8-0.6,9.2-1.8,10.4
	c-1.2,1.2-4.7,1.8-10.4,1.8h-67c-5.5,0-8.9-0.6-10.2-1.9c-1.3-1.3-1.9-4.7-1.9-10.2V52.5c0-5.5,0.5-8.9,1.5-10.2s3.6-2,7.7-2
	l2.8,0.1v-0.9c0-5,1.5-9.2,4.6-12.6c3-3.4,6.8-3.1,11.3-3.1c2.1,0,4.5,0.4,7.1,1.1l2.2,0.6c2.9,0.8,7,8.4,8.7,7.2
	c6-4.3-5.2-3.6-3.1-8.9c1-2.5,2.1-3.8,3.1-3.8c1.5,0,3.2,1,2.3,2.1c-2.5,3,4.5,3.5,3.6,9c-0.9,5.4-1.7,5.5-7,5.5
	c-1.8,0-4.7-5.4-8.5-6.3l-2.6-0.6c-2.9-0.7-4.9-1-6.1-1c-2.9,0-5.4-0.7-7.5,1.8s-3.1,5.5-3.1,8.9v1H109.5z M171.7,42.8h-67
	c-4.8,0-7.6,0.4-8.5,1.3c-0.9,0.9-1.3,3.7-1.3,8.5v23.1c0,4.8,0.4,7.6,1.3,8.5s3.7,1.3,8.5,1.3h67c4.8,0,7.6-0.4,8.5-1.3
	c0.8-0.9,1.3-3.7,1.3-8.5V52.5c0-4.8-0.4-7.6-1.3-8.5C179.3,43.2,176.5,42.8,171.7,42.8 M104.6,50h6.1v6h6.1v-6h6.2v6h6v-6h6.2v6
	h6.1v-6h6.1v6h6.1v-6h6.1v6h6.1v-6h6.1v6.2h-6v6.1h6v6.1h-6.3v-6h-6.1v6h-6.1v-6h-6.1v6h-6.1v-6H135v6h-6.2v-6h-6v6h-6.2v-6h-6.1v6
	h-6.1v-6.1h6v-6.1h-6V50H104.6z M116.8,72.1h42.6v6.1h-42.6C116.8,78.2,116.8,72.1,116.8,72.1z M116.8,62.2h6v-6.1h-6V62.2z
	 M129,62.2h6.1v-6.1H129V62.2z M141.3,62.2h6v-6.1h-6V62.2z M153.4,62.2h6v-6.1h-6V62.2z"/>
<path class="st0" d="M201.5,35.4h62.2c5.9,0,9.4,0.6,10.5,1.7s1.7,4.6,1.7,10.5v23.1c0,5.8-0.6,9.2-1.8,10.4
	c-1.2,1.2-4.7,1.8-10.4,1.8h-67c-5.5,0-8.9-0.6-10.2-1.9s-1.9-4.7-1.9-10.2V47.5c0-5.5,0.5-8.9,1.5-10.2s3.6-2,7.7-2l2.8,0.1v-0.9
	c0-5,1.5-9.2,4.6-12.6c3-3.4,6.8-1.1,11.3-1.1c2.1,0,4.5-0.6,7.1,0.1l2.2,0.6c2.9,0.8,7,2.4,8.7,1.2c6-4.3-5.2-3.6-3.1-8.9
	c1-2.5,2.1-3.8,3.1-3.8c1.5,0,3.2,1,2.3,2.1c-2.5,3,4.5,3.5,3.6,9c-0.9,5.4-1.7,5.5-7,5.5c-1.8,0-4.7,0.6-8.5-0.3l-2.6-0.6
	c-2.9-0.7-4.9,0-6.1,0c-2.9,0-5.4-2.7-7.5-0.2s-3.1,5.5-3.1,8.9v1H201.5z M263.7,37.8h-67c-4.8,0-7.6,0.4-8.5,1.3
	c-0.9,0.9-1.3,3.7-1.3,8.5v23.1c0,4.8,0.4,7.6,1.3,8.5c0.9,0.9,3.7,1.3,8.5,1.3h67c4.8,0,7.6-0.4,8.5-1.3c0.8-0.9,1.3-3.7,1.3-8.5
	V47.5c0-4.8-0.4-7.6-1.3-8.5C271.3,38.2,268.5,37.8,263.7,37.8 M196.6,45h6.1v6h6.1v-6h6.2v6h6v-6h6.2v6h6.1v-6h6.1v6h6.1v-6h6.1v6
	h6.1v-6h6.1v6.2h-6v6.1h6v6.1h-6.3v-6h-6.1v6h-6.1v-6h-6.1v6h-6.1v-6H227v6h-6.2v-6h-6v6h-6.2v-6h-6.1v6h-6.1v-6.1h6v-6.1h-6V45
	H196.6z M208.8,67.1h42.6v6.1h-42.6L208.8,67.1L208.8,67.1z M208.8,57.2h6v-6.1h-6V57.2z M221,57.2h6.1v-6.1H221V57.2z M233.3,57.2
	h6v-6.1h-6V57.2z M245.4,57.2h6v-6.1h-6V57.2z"/>
<path class="st1" d="M293.5,30.4h62.2c5.9,0,9.4,0.6,10.5,1.7s1.7,4.6,1.7,10.5v23.1c0,5.8-0.6,9.2-1.8,10.4
	c-1.2,1.2-4.7,1.8-10.4,1.8h-67c-5.5,0-8.9-0.6-10.2-1.9c-1.3-1.3-1.9-4.7-1.9-10.2V42.5c0-5.5,0.5-8.9,1.5-10.2s3.6-2,7.7-2
	l2.8,0.1v-0.9c0-5,1.5-9.2,4.6-12.6c3-3.4,6.8-6.1,11.3-6.1c2.1,0,4.5-0.6,7.1,0.1l2.2,0.6c2.9,0.8,7,2.4,8.7,1.2
	c6-4.3-5.2-3.6-3.1-8.9c1-2.5,2.1-3.8,3.1-3.8c1.5,0,3.2,1,2.3,2.1c-2.5,3,4.5,3.5,3.6,9c-0.9,5.4-1.7,5.5-7,5.5
	c-1.8,0-4.7,0.6-8.5-0.3l-2.6-0.6c-2.9-0.7-4.9,0-6.1,0c-2.9,0-5.4,2.3-7.5,4.8s-3.1,5.5-3.1,8.9v1H293.5z M355.7,32.8h-67
	c-4.8,0-7.6,0.4-8.5,1.3c-0.9,0.9-1.3,3.7-1.3,8.5v23.1c0,4.8,0.4,7.6,1.3,8.5s3.7,1.3,8.5,1.3h67c4.8,0,7.6-0.4,8.5-1.3
	c0.8-0.9,1.3-3.7,1.3-8.5V42.5c0-4.8-0.4-7.6-1.3-8.5C363.3,33.2,360.5,32.8,355.7,32.8 M288.6,40h6.1v6h6.1v-6h6.2v6h6v-6h6.2v6
	h6.1v-6h6.1v6h6.1v-6h6.1v6h6.1v-6h6.1v6.2h-6v6.1h6v6.1h-6.3v-6h-6.1v6h-6.1v-6h-6.1v6h-6.1v-6H319v6h-6.2v-6h-6v6h-6.2v-6h-6.1v6
	h-6.1v-6.1h6v-6.1h-6V40H288.6z M300.8,62.1h42.6v6.1h-42.6V62.1z M300.8,52.2h6v-6.1h-6V52.2z M313,52.2h6.1v-6.1H313V52.2z
	 M325.3,52.2h6v-6.1h-6V52.2z M337.4,52.2h6v-6.1h-6V52.2z"/>
</svg>
