<?xml version="1.0" encoding="utf-8"?>
<!-- Generator: Adobe Illustrator 17.0.0, SVG Export Plug-In . SVG Version: 6.00 Build 0)  -->
<!DOCTYPE svg PUBLIC "-//W3C//DTD SVG 1.1//EN" "http://www.w3.org/Graphics/SVG/1.1/DTD/svg11.dtd">
<svg version="1.1" id="Layer_1" xmlns="http://www.w3.org/2000/svg" xmlns:xlink="http://www.w3.org/1999/xlink" x="0px" y="0px"
	 width="137.336px" height="112.555px" viewBox="-72.262 0 137.336 112.555" enable-background="new -72.262 0 137.336 112.555"
	 xml:space="preserve">
<path fill="#010101" d="M-46.738,41.179h93.474c8.86,0,14.13,0.842,15.814,2.522c1.684,1.682,2.524,6.927,2.524,15.729v34.797
	c0,8.657-0.901,13.876-2.708,15.655c-1.804,1.781-7.011,2.672-15.617,2.672H-53.935c-8.311,0-13.444-0.975-15.396-2.931
	c-1.954-1.952-2.931-7.085-2.931-15.396V59.431c0-8.208,0.76-13.328,2.281-15.358c1.522-2.028,5.396-3.043,11.629-3.043l4.267,0.15
	v-1.41c0-7.52,2.29-13.838,6.87-18.958c4.58-5.118,10.263-7.678,17.044-7.678c3.221,0,6.783,0.544,10.696,1.631l3.269,0.964
	c4.307,1.237,10.485,5.128,13.022,3.309c9.003-6.46-7.855-5.411-4.588-13.325C-6.236,1.904-4.679,0-3.094,0
	c2.277,0,4.78,1.562,3.417,3.191c-3.771,4.504,6.781,5.295,5.462,13.473c-1.313,8.134-2.564,8.267-10.529,8.267
	c-2.72,0-6.998-0.669-12.836-2.005l-3.932-0.891c-4.303-1.038-7.37-1.558-9.199-1.558c-4.402,0-8.176,1.883-11.316,5.639
	c-3.14,3.759-4.711,8.235-4.711,13.429V41.179z M46.814,44.813H-53.926c-7.226,0-11.483,0.646-12.768,1.931
	c-1.289,1.289-1.931,5.525-1.931,12.705v34.763c0,7.228,0.642,11.489,1.931,12.775c1.285,1.289,5.542,1.931,12.768,1.931H46.814
	c7.226,0,11.468-0.642,12.73-1.931c1.262-1.285,1.895-5.546,1.895-12.775V59.45c0-7.18-0.644-11.415-1.931-12.705
	C58.221,45.459,53.99,44.813,46.814,44.813 M-54.085,55.573h9.128v9.126h9.199v-9.126h9.273v9.126h9.054v-9.126h9.273v9.126h9.126
	v-9.126h9.126v9.126h9.128v-9.126h9.126v9.126h9.199v-9.126h9.128v9.275h-9.054v9.199h9.054v9.126h-9.128v-8.978h-9.199v8.978
	h-9.126v-8.978h-9.128v8.978H0.969v-8.978h-9.126v8.978h-9.273v-8.978h-9.054v8.978h-9.273v-8.978h-9.199v8.978h-9.128v-9.126h9.052
	v-9.199h-9.052V55.573z M-35.757,88.812h64.105v9.126h-64.105V88.812z M-35.684,74.048h9.052v-9.199h-9.052V74.048z M-17.356,74.048
	h9.126v-9.199h-9.126V74.048z M1.043,74.048h8.978v-9.199H1.043V74.048z M19.296,74.048h8.978v-9.199h-8.978V74.048z"/>
</svg>
