<?xml version="1.0" encoding="utf-8"?>
<!-- Generator: Adobe Illustrator 17.0.0, SVG Export Plug-In . SVG Version: 6.00 Build 0)  -->
<!DOCTYPE svg PUBLIC "-//W3C//DTD SVG 1.1//EN" "http://www.w3.org/Graphics/SVG/1.1/DTD/svg11.dtd">
<svg version="1.1" id="Layer_1" xmlns="http://www.w3.org/2000/svg" xmlns:xlink="http://www.w3.org/1999/xlink" x="0px" y="0px"
	 width="91.336px" height="74.855px" viewBox="-26.262 0 91.336 74.855" enable-background="new -26.262 0 91.336 74.855"
	 xml:space="preserve">
<path fill="#010101" d="M-10.288,27.386h62.165c5.892,0,9.397,0.56,10.517,1.677c1.12,1.119,1.679,4.607,1.679,10.461v23.142
	c0,5.757-0.599,9.228-1.801,10.411c-1.2,1.184-4.663,1.777-10.386,1.777h-66.96c-5.527,0-8.941-0.648-10.239-1.949
	c-1.3-1.298-1.949-4.712-1.949-10.239V39.525c0-5.459,0.505-8.864,1.517-10.214c1.012-1.349,3.589-2.024,7.734-2.024l2.838,0.1
	v-0.938c0-5.001,1.523-9.203,4.569-12.608C-7.559,10.437-3.78,8.735,0.73,8.735c2.142,0,4.511,0.362,7.113,1.085l2.174,0.641
	c2.864,0.823,6.973,3.41,8.66,2.201c5.987-4.296-5.224-3.599-3.051-8.862C16.648,1.266,17.684,0,18.738,0
	c1.514,0,3.179,1.039,2.272,2.122c-2.508,2.995,4.51,3.521,3.633,8.96c-0.873,5.41-1.705,5.498-7.002,5.498
	c-1.809,0-4.654-0.445-8.537-1.333l-2.615-0.593c-2.862-0.69-4.901-1.036-6.118-1.036c-2.928,0-5.437,1.252-7.526,3.75
	c-2.088,2.5-3.133,5.477-3.133,8.931V27.386z M51.929,29.803h-66.998c-4.806,0-7.637,0.43-8.491,1.284
	c-0.857,0.857-1.284,3.674-1.284,8.45v23.119c0,4.807,0.427,7.641,1.284,8.496c0.855,0.857,3.686,1.284,8.491,1.284h66.998
	c4.806,0,7.627-0.427,8.466-1.284c0.839-0.855,1.26-3.688,1.26-8.496V39.538c0-4.775-0.428-7.592-1.284-8.45
	C59.515,30.233,56.702,29.803,51.929,29.803 M-15.174,36.959h6.071v6.069h6.118v-6.069h6.167v6.069h6.021v-6.069h6.167v6.069h6.069
	v-6.069h6.069v6.069h6.071v-6.069h6.069v6.069h6.118v-6.069h6.071v6.168h-6.021v6.118h6.021v6.069h-6.071v-5.971h-6.118v5.971
	h-6.069v-5.971h-6.071v5.971H21.44v-5.971H15.37v5.971H9.203v-5.971H3.182v5.971h-6.167v-5.971h-6.118v5.971h-6.071v-6.069h6.02
	v-6.118h-6.02L-15.174,36.959L-15.174,36.959z M-2.985,59.065h42.633v6.069H-2.985V59.065z M-2.937,49.246h6.02v-6.118h-6.02V49.246
	z M9.253,49.246h6.069v-6.118H9.253V49.246z M21.489,49.246h5.971v-6.118h-5.971V49.246z M33.628,49.246h5.971v-6.118h-5.971
	C33.628,43.128,33.628,49.246,33.628,49.246z"/>
</svg>
