<?xml version="1.0" encoding="utf-8"?>
<!-- Generator: Adobe Illustrator 24.0.2, SVG Export Plug-In . SVG Version: 6.00 Build 0)  -->
<svg version="1.1" id="Layer_1" xmlns="http://www.w3.org/2000/svg" xmlns:xlink="http://www.w3.org/1999/xlink" x="0px" y="0px"
	 viewBox="0 0 367.3 77.9" style="enable-background:new 0 0 367.3 77.9;" xml:space="preserve">
<style type="text/css">
	.st0{fill:none;stroke:#010101;stroke-miterlimit:10;}
	.st1{fill:#010101;}
</style>
<path class="st0" d="M17,30.4h62.2c5.9,0,9.4,0.6,10.5,1.7c1.1,1.1,1.7,4.6,1.7,10.5v23.1c0,5.8-0.6,9.2-1.8,10.4
	c-1.2,1.2-4.7,1.8-10.4,1.8h-67c-5.5,0-8.9-0.6-10.2-1.9C0.6,74.6,0,71.2,0,65.7V42.5c0-5.5,0.5-8.9,1.5-10.2c1-1.3,3.6-2,7.7-2
	l2.8,0.1v-0.9c0-5,1.5-9.2,4.6-12.6c3-3.4,6.8-5.1,11.3-5.1c2.1,0,4.5,0.4,7.1,1.1l2.2,0.6c2.9,0.8,7,3.4,8.7,2.2
	c6-4.3-5.2-3.6-3.1-8.9C43.9,4.3,44.9,3,46,3c1.5,0,3.2,1,2.3,2.1c-2.5,3,4.5,3.5,3.6,9c-0.9,5.4-1.7,5.5-7,5.5
	c-1.8,0-4.7-0.4-8.5-1.3l-2.6-0.6c-2.9-0.7-4.9-1-6.1-1c-2.9,0-5.4,1.3-7.5,3.8C18,22.9,17,25.8,17,29.3V30.4z M79.2,32.8h-67
	c-4.8,0-7.6,0.4-8.5,1.3c-0.9,0.9-1.3,3.7-1.3,8.5v23.1c0,4.8,0.4,7.6,1.3,8.5c0.9,0.9,3.7,1.3,8.5,1.3h67c4.8,0,7.6-0.4,8.5-1.3
	c0.8-0.9,1.3-3.7,1.3-8.5V42.5c0-4.8-0.4-7.6-1.3-8.5C86.8,33.2,84,32.8,79.2,32.8 M12.1,40h6.1V46h6.1V40h6.2V46h6V40h6.2V46h6.1
	V40h6.1V46h6.1V40h6.1V46H73V40h6.1v6.2h-6v6.1h6v6.1H73v-6h-6.1v6h-6.1v-6h-6.1v6h-6.1v-6h-6.1v6h-6.2v-6h-6v6h-6.2v-6h-6.1v6h-6.1
	v-6.1h6v-6.1h-6V40L12.1,40z M24.3,62.1h42.6v6.1H24.3V62.1z M24.3,52.2h6v-6.1h-6V52.2z M36.5,52.2h6.1v-6.1h-6.1V52.2z M48.8,52.2
	h6v-6.1h-6V52.2z M60.9,52.2h6v-6.1h-6V52.2z"/>
<path class="st1" d="M109,30.4h62.2c5.9,0,9.4,0.6,10.5,1.7c1.1,1.1,1.7,4.6,1.7,10.5v23.1c0,5.8-0.6,9.2-1.8,10.4
	c-1.2,1.2-4.7,1.8-10.4,1.8h-67c-5.5,0-8.9-0.6-10.2-1.9c-1.3-1.3-1.9-4.7-1.9-10.2V42.5c0-5.5,0.5-8.9,1.5-10.2c1-1.3,3.6-2,7.7-2
	l2.8,0.1v-0.9c0-5,1.5-9.2,4.6-12.6c3-3.4,6.8-5.1,11.3-5.1c2.1,0,4.5,0.4,7.1,1.1l2.2,0.6c2.9,0.8,7,2.4,8.7,1.2
	c6-4.3-5.2-3.6-3.1-8.9c1-2.5,2.1-3.8,3.1-3.8c1.5,0,3.2,1,2.3,2.1c-2.5,3,4.5,3.5,3.6,9c-0.9,5.4-1.7,5.5-7,5.5
	c-1.8,0-4.7,0.6-8.5-0.3l-2.6-0.6c-2.9-0.7-4.9-1-6.1-1c-2.9,0-5.4,1.3-7.5,3.8c-2.1,2.5-3.1,5.5-3.1,8.9V30.4z M171.2,32.8h-67
	c-4.8,0-7.6,0.4-8.5,1.3c-0.9,0.9-1.3,3.7-1.3,8.5v23.1c0,4.8,0.4,7.6,1.3,8.5c0.9,0.9,3.7,1.3,8.5,1.3h67c4.8,0,7.6-0.4,8.5-1.3
	c0.8-0.9,1.3-3.7,1.3-8.5V42.5c0-4.8-0.4-7.6-1.3-8.5C178.8,33.2,176,32.8,171.2,32.8 M104.1,40h6.1V46h6.1V40h6.2V46h6V40h6.2V46
	h6.1V40h6.1V46h6.1V40h6.1V46h6.1V40h6.1v6.2h-6v6.1h6v6.1H165v-6h-6.1v6h-6.1v-6h-6.1v6h-6.1v-6h-6.1v6h-6.2v-6h-6v6h-6.2v-6h-6.1
	v6h-6.1v-6.1h6v-6.1h-6V40L104.1,40z M116.3,62.1h42.6v6.1h-42.6V62.1z M116.3,52.2h6v-6.1h-6V52.2z M128.5,52.2h6.1v-6.1h-6.1V52.2
	z M140.8,52.2h6v-6.1h-6V52.2z M152.9,52.2h6v-6.1h-6V52.2z"/>
<path class="st0" d="M201,30.4h62.2c5.9,0,9.4,0.6,10.5,1.7c1.1,1.1,1.7,4.6,1.7,10.5v23.1c0,5.8-0.6,9.2-1.8,10.4
	c-1.2,1.2-4.7,1.8-10.4,1.8h-67c-5.5,0-8.9-0.6-10.2-1.9c-1.3-1.3-1.9-4.7-1.9-10.2V42.5c0-5.5,0.5-8.9,1.5-10.2c1-1.3,3.6-2,7.7-2
	l2.8,0.1v-0.9c0-5,1.5-9.2,4.6-12.6c3-3.4,6.8-5.1,11.3-5.1c2.1,0,4.5-0.6,7.1,0.1l2.2,0.6c2.9,0.8,7,2.4,8.7,1.2
	c6-4.3-5.2-3.6-3.1-8.9c1-2.5,2.1-3.8,3.1-3.8c1.5,0,3.2,1,2.3,2.1c-2.5,3,4.5,3.5,3.6,9c-0.9,5.4-1.7,5.5-7,5.5
	c-1.8,0-4.7,0.6-8.5-0.3l-2.6-0.6c-2.9-0.7-4.9,0-6.1,0c-2.9,0-5.4,1.3-7.5,3.8c-2.1,2.5-3.1,5.5-3.1,8.9V30.4z M263.2,32.8h-67
	c-4.8,0-7.6,0.4-8.5,1.3c-0.9,0.9-1.3,3.7-1.3,8.5v23.1c0,4.8,0.4,7.6,1.3,8.5c0.9,0.9,3.7,1.3,8.5,1.3h67c4.8,0,7.6-0.4,8.5-1.3
	c0.8-0.9,1.3-3.7,1.3-8.5V42.5c0-4.8-0.4-7.6-1.3-8.5C270.8,33.2,268,32.8,263.2,32.8 M196.1,40h6.1V46h6.1V40h6.2V46h6V40h6.2V46
	h6.1V40h6.1V46h6.1V40h6.1V46h6.1V40h6.1v6.2h-6v6.1h6v6.1H257v-6h-6.1v6h-6.1v-6h-6.1v6h-6.1v-6h-6.1v6h-6.2v-6h-6v6h-6.2v-6h-6.1
	v6h-6.1v-6.1h6v-6.1h-6V40L196.1,40z M208.3,62.1h42.6v6.1h-42.6V62.1z M208.3,52.2h6v-6.1h-6V52.2z M220.5,52.2h6.1v-6.1h-6.1V52.2
	z M232.8,52.2h6v-6.1h-6V52.2z M244.9,52.2h6v-6.1h-6V52.2z"/>
<path class="st1" d="M293,30.4h62.2c5.9,0,9.4,0.6,10.5,1.7c1.1,1.1,1.7,4.6,1.7,10.5v23.1c0,5.8-0.6,9.2-1.8,10.4
	c-1.2,1.2-4.7,1.8-10.4,1.8h-67c-5.5,0-8.9-0.6-10.2-1.9c-1.3-1.3-1.9-4.7-1.9-10.2V42.5c0-5.5,0.5-8.9,1.5-10.2c1-1.3,3.6-2,7.7-2
	l2.8,0.1v-0.9c0-5,1.5-9.2,4.6-12.6c3-3.4,6.8-6.1,11.3-6.1c2.1,0,4.5-0.6,7.1,0.1l2.2,0.6c2.9,0.8,7,2.4,8.7,1.2
	c6-4.3-5.2-3.6-3.1-8.9c1-2.5,2.1-3.8,3.1-3.8c1.5,0,3.2,1,2.3,2.1c-2.5,3,4.5,3.5,3.6,9c-0.9,5.4-1.7,5.5-7,5.5
	c-1.8,0-4.7,0.6-8.5-0.3l-2.6-0.6c-2.9-0.7-4.9,0-6.1,0c-2.9,0-5.4,2.3-7.5,4.8c-2.1,2.5-3.1,5.5-3.1,8.9V30.4z M355.2,32.8h-67
	c-4.8,0-7.6,0.4-8.5,1.3c-0.9,0.9-1.3,3.7-1.3,8.5v23.1c0,4.8,0.4,7.6,1.3,8.5c0.9,0.9,3.7,1.3,8.5,1.3h67c4.8,0,7.6-0.4,8.5-1.3
	c0.8-0.9,1.3-3.7,1.3-8.5V42.5c0-4.8-0.4-7.6-1.3-8.5C362.8,33.2,360,32.8,355.2,32.8 M288.1,40h6.1V46h6.1V40h6.2V46h6V40h6.2V46
	h6.1V40h6.1V46h6.1V40h6.1V46h6.1V40h6.1v6.2h-6v6.1h6v6.1H349v-6h-6.1v6h-6.1v-6h-6.1v6h-6.1v-6h-6.1v6h-6.2v-6h-6v6h-6.2v-6h-6.1
	v6h-6.1v-6.1h6v-6.1h-6V40L288.1,40z M300.3,62.1h42.6v6.1h-42.6V62.1z M300.3,52.2h6v-6.1h-6V52.2z M312.5,52.2h6.1v-6.1h-6.1V52.2
	z M324.8,52.2h6v-6.1h-6V52.2z M336.9,52.2h6v-6.1h-6V52.2z"/>
</svg>
