<?xml version="1.0" encoding="utf-8"?>
<!-- Generator: Adobe Illustrator 24.0.2, SVG Export Plug-In . SVG Version: 6.00 Build 0)  -->
<svg version="1.1" id="devgru-logo" xmlns="http://www.w3.org/2000/svg" xmlns:xlink="http://www.w3.org/1999/xlink" x="0px"
	 y="0px" width="224" height="87.6" viewBox="0 0 224 87.6" style="enable-background:new 0 0 224 87.6;" xml:space="preserve">
<path d="M173,11.7c1.8-1.4,3.9-2.5,5.8-3.7c0.6,0.6,0.7,1.2,0.5,1.7c-0.3,0.6-0.1,1.2,0.5,1.6c0.5-0.1,0.8-0.3,1.2-0.6
	c2.2-1.9,5-2.3,7.7-1.8c4.6,0.9,9.1,2.6,13.2,5c1.3,0.8,2.8,1.7,3.2,3c0.5,1.5,1.4,2.9,1.4,4.6c0,1.9-0.3,4.1,0.6,6
	c0.4,0.8,0.2,2,0.1,2.8c-0.3,2,1,3.5,1.2,5.4c0.1,0.9,1.4,1,2.2,1.3c0.8,0.3,1.8,0.1,2.1,1.2c-3,0.6-18.7-2.8-20.3-4.5
	c1.6-0.5,3,0.3,4.5,0.6c0.7,0.1,1.4,0.4,2.1,0.5c0.3,0.1,0.6,0.1,0.7-0.1c0.8-0.8,1.4-1.7,2.6-2.3c-2.1-0.9-2.1-1-1.9-2.9
	c0.1-1-0.5-2.1-0.1-3.2c0.2-0.8-1.2-1.4-0.6-2.5c-0.3-0.2-0.6-0.4-0.8-0.5c0.3-0.5,1.4-0.5,1.2-1.4c-0.3-0.5-1-0.1-1.5-0.3
	c-0.2-1.5-0.5-3.1-0.6-4.7c0-0.2-0.1-0.3-0.2-0.5c-3.2-2.8-6.5-5.4-11.2-5.8c-2-0.2-3.8,0.1-5.4,1.3c-0.7,0.5-1.2,1.2-1.2,1.9
	c-0.2,1.5-0.5,3.1-0.3,4.7c0.4,3.2,0.6,6.4,0.6,9.6c-0.1,2.6,1.1,3.4,3.4,3.6c0.5,0.1,1,0.2,0.9,0.7c-0.1,0.5-0.6,0.5-1,0.4
	c-3-0.4-6-0.3-9-0.1c-0.5,0-1,0.1-1.1-0.5c-0.1-0.5,0.4-0.5,0.7-0.6c2.3-0.7,2.7-1.4,2.6-3.7c-0.3-3.9-0.5-7.7-0.5-11.7
	c0-0.9-0.1-1.7-0.3-2.6c-0.1-0.7-0.5-1.2-1.4-1.3C174.2,12.2,173.6,12.3,173,11.7z"/>
<path d="M132.6,33.5c0.2-0.4,0.5-0.6,1-0.6c2.1-0.1,2.5-1.4,2.3-3.2c-0.1-2-0.1-4-0.2-6c-0.1-2.8-0.1-5.7-0.8-8.5
	c-0.6-2.8-2.9-3.8-5.8-2.8c-2.6,0.9-3.7,2.4-3.8,5c-0.1,4.3,0.6,8.5,0.5,12.7c-0.1,1.9,0.7,2.6,2.8,3c0.3,0,0.6,0.2,0.7,0.5
	c-0.6,0.7-8.5,1.2-10.1,0.6c-0.1-0.6,0.5-0.8,0.8-0.8c1.9-0.1,2.5-1.2,2.4-2.5c-0.4-3.9-0.2-7.9-0.5-11.7c-0.1-0.8-0.2-1.7-0.2-2.5
	c-0.1-1.9-0.4-2.3-2.5-2.6c-0.4,0-0.7-0.2-0.9-0.5c2.1-1,4.3-2.2,6.1-3.9c0.5,1.5,0,2.6,0.5,3.7c0.8,0.3,1.2-0.3,1.6-0.6
	c1.2-1,2.4-2.1,4.1-2.5c2.6-0.7,4.6,0,6.2,2c0.3,0.5,0.5,1,1.2,1.1c0.9-0.7,1.8-1.5,2.8-2.3c2.6-1.9,5.6-2.1,8.3-0.6
	c1.5,0.8,2.3,2,2.3,3.5c0.3,5.2,0.5,10.4,0.7,15.6c0.1,1.8,0.5,2.3,2.5,2.6c0.5,0.1,1,0.1,1,0.6c-0.1,0.5-0.6,0.5-1.1,0.5
	c-2.5-0.1-5,0-7.4,0.3c-0.5,0.1-1.2,0.2-1.3-0.4c-0.2-0.6,0.5-0.6,1-0.7c1.4-0.3,2-1,2.1-2.4c0.1-4.9-0.5-9.8-0.5-14.7
	c0-1.8-1.3-3.4-3-3.8c-2.1-0.5-4.8,0.5-5.9,2.2c-0.6,0.9-0.9,1.9-0.9,3c-0.1,4.5,0.5,8.8,0.5,13.3c0,1.6,0.6,2.1,2.5,2.5
	c0.5,0.1,1,0.1,1,0.6c-0.1,0.6-0.6,0.5-1.1,0.5c-2.5-0.1-5,0.1-7.4,0.3C133.5,34.1,132.9,34.2,132.6,33.5z"/>
<path d="M78.7,87.3c-3,0.3-5.9-0.1-8.8,0.3c-0.4,0.1-0.9,0.1-1-0.5c0-0.5,0.5-0.6,0.8-0.6c2.3-0.6,2.5-1,2.3-3.1
	c-0.3-3.4-0.1-6.8-0.5-10.2c-0.4-4.4-0.4-8.8-0.5-13.2c-0.1-3.2-0.1-3.2-3.5-4.1c2.1-1.5,4.6-2.1,6.1-4.1c1,1.1,0.2,2.3,0.8,3.4
	c0.7,0,1-0.5,1.4-0.9c3.4-3.7,7.8-2.3,9.9,0.7c1.8,2.5,2.8,5.6,2.9,8.6c0.1,3.5-0.6,6.8-2.8,9.8c-2.3,3.1-5.2,3.9-9.1,2.6
	c-1.5-0.5-1.7-0.3-1.7,1.2c0.1,2.1,0.1,4.1,0.2,6.2c0.1,2.1,0.5,2.6,2.6,2.9C78.8,86.4,79,86.6,78.7,87.3z M85.2,65
	c0.1-1.2-0.1-2.5-0.3-3.7c-0.5-2.1-1.1-4.1-2.6-5.7c-2.1-2.2-6-1.7-7.3,1c-0.5,0.9-0.4,1.9-0.4,2.9c0.1,3.8,0.3,7.6,0.5,11.5
	c0.1,2.3,1.5,4.1,3.7,4.5c2,0.5,3.8-0.6,5-2.8C85,70.4,85.3,67.8,85.2,65z"/>
<path d="M96.6,14.4c1.9-1.2,4.3-2.1,5.9-3.9c1.2,1-0.3,2.5,1,3.3c0.8-0.1,1.1-0.8,1.6-1.3c2.7-2.5,6.2-2.5,8.8,0.1
	c1.8,1.9,2.7,4.1,3.3,6.5c1.2,4.5,0.4,8.8-2.3,12.7c-1.4,2.1-3.5,3.5-6.5,3.5c-0.8-0.1-1.5-0.2-2.3-0.5c-0.6-0.2-1.2-0.6-2.1-0.3
	c0,1.7,0,3.4,0.1,5c0,1,0.2,2.1,0.3,3.1c0,1.4,0.7,2.1,2.2,2.1c0.5,0,0.9,0.2,1.2,0.5c-0.1,0.6-0.5,0.7-1.1,0.6
	c-2.5-0.1-5.1,0.1-7.6,0.3c-0.5,0.1-1.2,0.2-1.2-0.5c-0.1-0.7,0.6-0.6,1.1-0.7c1.5-0.3,2.1-1,2-2.4c-0.3-7.8-0.6-15.6-0.8-23.4
	c-0.1-0.9-0.3-1.7-0.3-2.6c-0.1-1.1-0.6-1.7-1.9-1.7C97.4,15,96.9,15,96.6,14.4z M103.5,23.3c0.3,2.5-0.2,5,0.4,7.6
	c0.5,1.8,1.9,3.2,3.7,3.5c1.4,0.3,3.3-0.5,4.3-1.9c0.4-0.5,0.7-1.1,1-1.7c1.7-4.8,1.6-9.5-0.4-14.1c-0.2-0.4-0.4-0.8-0.6-1.1
	c-1.4-2.1-3.3-2.8-5.6-2.3c-1.8,0.5-3.1,2.3-3.1,4.4C103.2,19.5,103.3,21.4,103.5,23.3L103.5,23.3z"/>
<path d="M5.3,46c-0.9,0-1.9,0-2.8,0c-0.5,0-0.9,0-0.9-0.6c0-0.4,0.3-0.5,0.7-0.6C5.1,44,5.1,44,5.1,41.4C4.7,33.6,4.5,25.8,4.2,18
	c-0.1-2.3-0.4-2.6-3-2.6c-0.5,0-1,0.1-1.2-0.5c-0.1-0.6,0.4-0.7,0.8-0.9c2.5-0.9,5.1-1.1,7.7-1.5c1.5-0.2,3.2-0.6,4.8-0.3
	c3.2,0.5,5.2,2.1,6.5,4.8c1.4,3,1.7,6.3,1.7,9.4c0.1,1.9-0.1,3.8-0.4,5.7c-0.4,2.3-0.8,4.6-1.9,6.8c-1.7,3.5-4.3,6.2-9.1,6.5
	C8.6,45.6,7,45.9,5.3,46z M8.4,36.3c0.1,1.4-0.1,3.4,0.3,5.4c0.2,1,0.3,1.9,1.5,2.2c1.4,0.3,3,0.2,4-0.6c2.1-1.9,3.5-4.2,3.8-6.9
	c0.4-3.4,0.9-6.7,0.7-10.1c-0.2-3.5-0.6-7-2.5-10.2c-0.5-1-1.4-1.9-2.5-2.3c-2.5-1.1-6.1-0.1-6.1,3.2c0,1.2,0.3,2.4,0.3,3.6
	C7.9,25.6,8.3,30.7,8.4,36.3L8.4,36.3z"/>
<path d="M14.9,70.1c-0.1-0.7-0.1-1.2,0.8-1.2c1.7-0.1,3.3-0.6,4.8-1.4c0.3-0.2,0.8-0.5,1.1,0c0.2,0.3,0.1,0.6-0.1,0.8
	c0,0-0.1,0.1-0.1,0.1c-1.9,1.1-1.3,2.8-1.3,4.3c0.1,2.8,0.3,5.5,0.3,8.3c0,1.8-1.5,2.9-3,3.7c-4.1,2.1-6.8,1.4-9.6-1.8
	c-2.9-3.3-4.2-7.1-4.5-11.3C2.9,67,3.7,62.7,6,58.7c1.1-1.8,2.5-3.5,3.9-5c1.9-1.9,4.6-2.7,7.6-2.5c1,0.1,1.5,0.5,1.5,1.5
	c0.2,1.9,0.1,3.7,0.3,5.6c0.1,0.6,0.1,1.1-0.6,1.5c-0.8-0.3-0.8-1.1-0.8-1.6c-0.2-1.3-0.8-2.3-1.3-3.5c-0.8-1.7-1.6-2.1-3.5-1.4
	c-1.7,0.5-2.7,1.5-3.2,3c-1.7,5-3,10.1-2.3,15.4c0.4,3.4,1.3,6.7,2.7,9.8c0.3,0.8,0.9,1.4,1.5,1.9c1,0.7,1.9,1.4,3.4,0.8
	c1.5-0.6,2.4-1.5,2.6-3c0.5-3-0.2-6.1-0.1-9.2C17.8,70.4,16.4,70,14.9,70.1z"/>
<path d="M69.1,74.4c-1.9,1.4-3.6,2.5-5.7,3c-0.5-1.2,0.3-2.5-0.7-3.4c-0.8,0.3-1.2,0.9-1.8,1.4c-1.6,1.4-3.4,2.5-5.7,2.3
	c-2.8-0.1-4.8-1.7-5.4-4.1c-0.2-1.3-0.3-2.6-0.3-3.9c-0.2-4.2-0.2-8.4-0.6-12.6c-0.1-1.4-0.8-2.1-2.3-2.1c-0.5,0-0.9-0.1-1.1-0.6
	c0.2-0.5,0.6-0.5,1.1-0.5c1.4,0,2.7,0.1,4.1-0.1c1.2-0.1,1.7,0.3,1.7,1.4c0.1,4.6,0.3,9.4,0.4,14c0,1.3,0.3,2.6,0.6,3.9
	c0.7,2,2.3,2.8,4.6,2.5c3-0.5,5-2.6,5-5.3c-0.1-4.3-0.3-8.5-0.5-12.7c-0.1-2.1-0.4-2.3-2.8-3c-0.3-0.1-0.7-0.2-0.7-0.6
	s0.5-0.5,0.8-0.5c1.4-0.1,2.9-0.1,4.3-0.1c1-0.1,1.5,0.3,1.5,1.3c0.2,5.7,0.5,11.4,0.7,17.1C66.3,73.8,66.3,73.8,69.1,74.4z"/>
<path d="M86.9,11.2c2.4,0,4.6,1,6.2,2.8c2.9,3.2,4,6.9,3.7,11c-0.1,2.5-0.9,5-2.3,7.1c-3.5,5.2-10.1,5.5-14.1,0.6
	c-4.6-5.6-4.2-14.8,0.8-19.5C82.8,11.9,84.6,11.2,86.9,11.2z M93.3,23.8c-0.1-0.9-0.1-1.7-0.3-2.5c-0.5-2.6-1.2-5.1-3-7.2
	c-2-2.5-4.9-2.3-6.8,0.2c-0.3,0.5-0.6,1-0.9,1.5c-1.8,3.8-2.1,8.1-1,12.2c0.6,2.1,1.3,4.2,2.9,5.9c1.9,1.9,4.3,1.9,6.1-0.1
	c0.5-0.6,0.8-1.2,1.2-1.8C92.8,29.2,93,26.5,93.3,23.8z"/>
<path d="M66.3,30c1,1,0.3,1.9,0.1,2.6c-1,2.5-3,4-5.9,4.5s-5.4-0.4-7.2-2.5c-3-3.5-3.7-7.6-3.2-12c0.3-2.3,0.9-4.5,2.3-6.6
	c2.1-3,5.2-4.4,8.6-3.6c3.2,0.7,4.3,3,5.1,5.6c0.3,1.2,0.5,2.5,0.4,3.7c-0.1,1.4-0.3,1.7-2,1.9c-3.2,0.1-6.3,0.3-9.5,0.3
	c-1.2,0-1.4,0.5-1.4,1.4c0.1,2.6,0.7,5.2,2.3,7.4c2.4,3.3,6.5,3.2,8.8-0.3C65.3,31.6,65.5,30.7,66.3,30z M57.8,22.6v-0.1
	c0.8,0,1.5,0,2.3,0c1.9-0.1,2.6-0.6,3.1-2.3c0.4-1.4-0.1-2.6-0.5-3.8c-0.5-1.4-1.2-2.8-3-3c-1.9-0.3-3.2,0.9-4.1,2.3
	c-1,1.4-1.6,3.1-1.7,4.8c-0.3,2.1,0,2.3,2.3,2.2C56.6,22.6,57.2,22.6,57.8,22.6L57.8,22.6z"/>
<path d="M171.2,26.3c0.8,0.4,0.6,1,0.5,1.5c-0.7,2.8-2.6,4.6-5.6,5.4c-3.2,0.8-5.8-0.2-7.8-2.5c-1.9-2.1-2.6-4.7-3-7.4
	c-0.6-3.3,0-6.4,1.4-9.4c1.3-2.8,3.3-5.1,7-5.5c3.8-0.4,6.6,1.8,7.6,5.6c0.3,1.2,0.3,2.5,0.4,3.7c0.1,1.6-0.3,1.9-2.1,2.1
	c-2.8,0.1-5.6,0.1-8.4,0.3c-2.3,0.1-2.4,0.1-2.3,2.3c0.1,2.4,0.8,4.6,2.3,6.6c2.3,3.2,6.6,3,8.7-0.3C170.2,27.9,170.4,27,171.2,26.3
	z M162.3,18.9c1.2-0.1,2.2-0.1,3.2-0.2c1.4-0.1,2.2-0.8,2.5-2.1c0.5-1.7,0-3.2-0.8-4.7c-1.4-2.8-4.2-3.1-6.3-0.7
	c-1.5,1.6-2.1,3.6-2.3,5.6c-0.3,1.9,0.1,2.2,2.3,2.1C161.4,18.9,162,19,162.3,18.9z"/>
<path d="M46.4,65.6c-0.1,4.3-1.2,8.1-4.4,11.1c-1,1-2.3,1.6-3.7,2c-2,0.6-4.2-0.3-5.2-2.1c-1.4-2.3-2.3-4.7-2.2-7.5
	c0.1-1.5-0.3-3.1-0.1-4.6c0.4-2.8,0.9-5.7,2.6-8.1c2.1-3,5.2-4,8.5-1C45.1,58.3,46.2,62,46.4,65.6z M42.9,66c0-3.5-1-6.9-3-9.8
	c-0.6-0.9-1.5-1.5-2.6-1.4c-1.1,0.1-1.8,0.8-2.3,1.9c-1.5,3.1-1.8,6.4-2,9.7c-0.1,1.5,0.5,3,0.6,4.5c0.2,2.1,0.8,4.1,2,5.7
	c1,1.4,2.5,1.4,3.8,0.3c0.8-0.6,1.4-1.4,1.7-2.3C42.2,71.9,42.8,69,42.9,66L42.9,66z"/>
<path d="M78.1,35.9c-3.2,0.3-6.5-0.1-9.7,0.5c-0.5-1.1,0.3-1.2,0.8-1.2c1.5-0.1,2.1-1,2.1-2.3C71,23.6,70.6,14.3,70.1,5
	c-0.1-1.6-0.5-1.9-3-2.2c-0.2-0.2-0.2-0.5,0.1-0.7c0,0,0,0,0.1-0.1c0.9-0.7,5-2.1,5.9-2c0.3,1.2,0.4,2.5,0.4,3.7
	c0.3,8.1,0.5,16.3,0.8,24.5c0.1,1.5,0.3,3,0.3,4.5c0,1.4,0.6,2.1,2.3,2.3C77.6,35,78.2,34.9,78.1,35.9z"/>
<path d="M223.9,33.4c0.6,2.3-1.7,5.2-4.2,5.6c-2.5,0.4-4.3-1.2-4.6-3.8c-0.4-3.4-0.3-6.7-0.5-10.1c-0.2-2.4-0.3-4.8-0.6-7.2
	c-0.1-1.3-1.4-1.4-2.4-1.5c-0.6-0.1-1.6,0.3-1.8-0.4c-0.2-0.7,0.5-1.4,1.1-1.9c1-0.8,2-1.5,3-2.3c0.8-0.7,1.5-1.5,1.9-2.5
	c0.2-0.4,0.3-1,1-0.9c0.6,1.7,0.5,3.5,0.5,5.2c0,1,0.5,1.5,1.5,1.4c0.7-0.1,1.5-0.1,2.2-0.1c0.6,0,1.3,0.1,1.3,0.8
	c0,0.9-0.7,0.9-1.4,0.9c-0.7,0-1.4-0.1-2-0.1c-1.1,0-1.6,0.5-1.5,1.5c0.3,5.3,0.5,10.5,0.8,15.8c0.1,0.5,0.2,1,0.4,1.5
	c0.6,1.4,2.1,1.7,3.3,0.6C222.6,35.2,223.1,34.3,223.9,33.4z"/>
<path d="M41.1,37.9c-0.8-0.9-0.9-2.1-1.2-3c-1.5-5-3.3-9.9-4.3-15.1c-0.1-0.7-0.5-1.4-0.6-2.1c-0.1-0.6-0.7-1-1.3-0.8h-0.1
	c-0.5,0.1-0.9-0.1-1-0.5c0-0.4,0.2-0.8,0.8-0.9c1.9-0.4,3.7-0.8,5.5-1.3c0.5-0.1,1-0.1,1.1,0.5c0.1,0.5-0.3,0.6-0.7,0.8
	c-2,0.6-2.1,0.9-1.5,2.8c0.9,3.8,2.4,7.5,3.4,11.3c0.1,0.5,0.5,1,1,1.8c1.2-3.8,2.3-7.2,3.2-10.6c0.4-1.3,1-2.5,1-3.9
	c0-1.5-0.3-1.8-1.9-1.9c-0.5,0-1.3,0.2-1.3-0.6c-0.1-0.6,0.8-0.6,1.2-0.7c2.1-0.1,4.1-0.1,6.2-0.2c0.5,0,0.8,0.2,0.7,0.9
	c-3.2,0.3-3.4,2.8-4.1,5c-1.7,5.6-3.5,11-5,16.6C41.9,36.5,42.2,37.4,41.1,37.9z"/>
<path d="M25.1,28.7c-0.1,3.1-0.1,6.2,1.7,9c0.8,1.3,1.9,1.4,3.2,0.3c1.2-1,2-2.1,2.1-3.5c0.1-0.6,0.6-1,0.7-1.5
	c0.5,1,0.3,2.8-0.6,4.4c-0.7,1.2-1.7,2.3-2.8,3.2c-1.4,1.2-3.4,0.8-4.5-0.7c-0.6-0.8-1-1.7-1.2-2.7c-0.9-3.2-0.8-6.5-0.7-9.7
	c0.1-2.3,0.7-4.6,1.6-6.7c0.7-1.7,1.4-3.6,3.7-4.4c1.5-0.5,2.8-0.3,3.4,1c1.4,2.6,1.5,5.4,1.2,8.2c-0.1,0.6-0.6,0.9-1.2,1.1
	L25.1,28.7z M25,27.5c1.6-0.5,2.9-0.8,4.1-1.3c0.6-0.3,1.4-0.6,1.5-1.2c0.5-2.3,0.7-4.5-0.5-6.7c-0.6-1.2-1.8-1.2-2.7-0.1
	C25.2,20.8,25.3,24.1,25,27.5L25,27.5z"/>
<path d="M21.3,62.3c1.4-1.7,2.7-3.1,3.5-5.2c0.6,1.6-0.2,3.1,0.7,4.3c1-1,0.6-2.3,1.4-3.4c0.6-0.8,1.2-1.6,2.3-1.5
	c1.1,0.1,1.2,1,1.4,1.9c0.1,0.8,0.1,1.7-0.2,2.5c-0.2,0.8-0.7,1.4-1.8,1.4c-0.7-1-0.1-2.1-0.5-3.2C27,59.1,27,60,26.7,60.6
	c-1.7,4.1-1,8.3-1.2,12.5c-0.1,1.5,0.3,3,0.1,4.5c-0.2,1.5,0.7,2.3,2.1,2.5c0.2,0.4,0.2,0.8-0.3,1c-1.7,0.6-3.4,1.1-5,1.7
	c-0.4,0.1-0.6,0.1-0.8-0.2c-0.1-0.2,0-0.5,0.2-0.6l0,0c2.3-1.2,1.9-3.1,1.8-5c-0.1-2.1-0.3-4.3-0.3-6.4c0.1-2.2-0.5-4.3-0.2-6.5
	C23.4,62.9,23.1,62,21.3,62.3z"/>
</svg>
