<?xml version="1.0" encoding="utf-8"?>
<!-- Generator: Adobe Illustrator 17.0.0, SVG Export Plug-In . SVG Version: 6.00 Build 0)  -->
<!DOCTYPE svg PUBLIC "-//W3C//DTD SVG 1.1//EN" "http://www.w3.org/Graphics/SVG/1.1/DTD/svg11.dtd">
<svg version="1.1" id="Layer_1" xmlns="http://www.w3.org/2000/svg" xmlns:xlink="http://www.w3.org/1999/xlink" x="0px" y="0px"
	 width="91.617px" height="56.989px" viewBox="-12.018 -2.775 91.617 56.989" enable-background="new -12.018 -2.775 91.617 56.989"
	 xml:space="preserve">
<path d="M38.817,54.214H7.388L-5.655,43.28c-4.242-3.562-6.363-6.855-6.363-9.879c0-2.18,0.85-3.937,2.548-5.273
	c1.7-1.336,3.944-2.004,6.733-2.004c3.305,0,6.68,0.984,10.125,2.953v-0.879c0-3.703,1.083-6.908,3.249-9.615
	c2.166-2.707,5.099-4.54,8.798-5.502l25.008-6.434V1.233l15.644-4.008v5.52c1.359-0.328,2.754-0.492,4.184-0.492
	c4.078,0,7.652,1.564,10.722,4.693c3.071,3.129,4.606,6.768,4.606,10.916v25.945L38.817,54.214z M33.892,52.491L14.698,36.495
	c-6.89-5.718-12.655-8.578-17.295-8.578c-2.274,0-4.114,0.48-5.52,1.441c-1.406,0.962-2.108,2.215-2.108,3.762
	c0,2.836,2.634,6.411,7.903,10.723l10.503,8.648H33.892z M8.283,39.87l-1.211,1.336H1.798l-4.008-3.375l0.879-1.512l1.828,1.406
	h2.707L4.329,36.6L8.283,39.87z M35.195,21.518c-2.981-4.5-7.124-6.75-12.427-6.75c-3.943,0-7.204,1.296-9.785,3.885
	c-2.582,2.59-3.872,5.866-3.872,9.826v1.617c2.674,1.711,4.974,3.423,6.899,5.133l1.373,1.196l5.456-11.813L35.195,21.518z
	 M37.06,28.444c0-1.664-0.341-3.422-1.021-5.273l-11.968,2.953l-5.246,11.461l6.337,5.308L27.837,30.8L37.06,28.444z M77.876,42.507
	V17.932c0-3.773-1.377-7.066-4.131-9.879c-2.754-2.812-5.982-4.218-9.685-4.218c-1.125,0-2.449,0.188-3.973,0.562v7.137
	l-9.984,2.742v20.988l-5.66,1.336V8.511l-18.084,4.605c3.871,1.195,6.88,3.124,9.027,5.783c2.146,2.66,3.221,5.807,3.221,9.44
	v24.152L77.876,42.507z M36.884,46.198V30.413l-7.639,1.898l-2.64,11.742l4.471,3.622L36.884,46.198z M36.884,52.491v-4.605
	l-4.225,1.089L36.884,52.491z"/>
</svg>
