<?xml version="1.0" encoding="utf-8"?>
<!-- Generator: Adobe Illustrator 17.0.0, SVG Export Plug-In . SVG Version: 6.00 Build 0)  -->
<!DOCTYPE svg PUBLIC "-//W3C//DTD SVG 1.1//EN" "http://www.w3.org/Graphics/SVG/1.1/DTD/svg11.dtd">
<svg version="1.1" id="Layer_1" xmlns="http://www.w3.org/2000/svg" xmlns:xlink="http://www.w3.org/1999/xlink" x="0px" y="0px"
	 width="59.59px" height="58.113px" viewBox="4.602 -2.798 59.59 58.113" enable-background="new 4.602 -2.798 59.59 58.113"
	 xml:space="preserve">
<path d="M51.395,9.612c0-3.186-0.603-5.471-1.81-6.855c-1.207-1.383-3.193-2.074-5.959-2.074c-5.508,0-9.715,3.95-12.621,11.847
	l-0.563,1.582c-3.422,9.259-8.414,13.887-14.976,13.887c-2.625,0-5.092-1.014-7.401-3.041c-2.308-2.026-3.463-4.188-3.463-6.486
	c0-1.172,0.551-1.758,1.653-1.758c0.726,0,1.465,0.927,2.215,2.777c1.406,3.353,3.75,5.028,7.031,5.028
	c2.508,0,4.553-0.803,6.135-2.409c1.582-1.604,3.369-4.68,5.361-9.228l1.301-2.883c3.82-8.53,8.976-12.797,15.469-12.797
	c7.382,0,11.074,4.137,11.074,12.41h3.586c2.461,0,4.037,0.334,4.728,1.002c0.692,0.668,1.037,2.186,1.037,4.553v26.754
	c0,3.704-1.306,6.861-3.92,9.475c-2.613,2.614-5.771,3.919-9.474,3.919c-3.68,0-6.826-1.305-9.44-3.919
	c-2.613-2.614-3.92-5.771-3.92-9.475V15.167c0-2.272,0.37-3.767,1.108-4.482c0.738-0.715,2.291-1.073,4.658-1.073H51.395z
	 M52.274,11.335h-9.165c-1.692,0-2.773,0.224-3.243,0.671c-0.471,0.447-0.705,1.458-0.705,3.035v5.575h13.113V11.335z
	 M39.161,22.339v19.582c0,3.212,1.137,5.959,3.41,8.244c2.274,2.285,5.016,3.428,8.227,3.428c3.234,0,5.988-1.137,8.261-3.41
	c2.274-2.273,3.411-5.028,3.411-8.262V22.339H39.161z M53.997,11.335v9.281h8.473v-5.575c0-1.647-0.223-2.676-0.668-3.088
	c-0.446-0.412-1.535-0.618-3.27-0.618H53.997z"/>
</svg>
