<?xml version="1.0" encoding="utf-8"?>
<!-- Generator: Adobe Illustrator 17.0.0, SVG Export Plug-In . SVG Version: 6.00 Build 0)  -->
<!DOCTYPE svg PUBLIC "-//W3C//DTD SVG 1.1//EN" "http://www.w3.org/Graphics/SVG/1.1/DTD/svg11.dtd">
<svg version="1.1" id="Layer_1" xmlns="http://www.w3.org/2000/svg" xmlns:xlink="http://www.w3.org/1999/xlink" x="0px" y="0px"
	 width="68.976px" height="54.633px" viewBox="1.005 -0.105 68.976 54.633" enable-background="new 1.005 -0.105 68.976 54.633"
	 xml:space="preserve">
<path d="M1.005,54.528l11.601-17.824l48.34-36.809c5.532,1.665,8.543,5.567,9.035,11.707l-48.48,36.809L1.005,54.528z M7.474,47.708
	l2.004,2.531l10.933-3.235c1.594-1.406,2.391-2.448,2.391-3.128c0-0.282-0.076-0.487-0.229-0.616
	c-0.152-0.128-0.392-0.193-0.72-0.193c-0.68,0-1.852,0.41-3.516,1.23c1.406-1.335,2.109-2.448,2.109-3.339
	c0-0.445-0.123-0.779-0.369-1.002c-0.246-0.223-0.627-0.334-1.142-0.334c-0.54,0-1.641,0.399-3.305,1.195
	c1.476-1.266,2.215-2.378,2.215-3.34c0-0.258-0.071-0.451-0.211-0.58c-0.141-0.128-0.364-0.193-0.668-0.193
	c-1.055,0-2.18,0.457-3.375,1.371L7.474,47.708z M16.895,35.579c0.399-0.093,0.727-0.141,0.985-0.141
	c0.937,0,1.406,0.445,1.406,1.336l-0.035,0.352l29.144-22.325c-0.773-0.585-1.535-1.042-2.285-1.371L16.895,35.579z M20.27,38.461
	c1.079,0.259,1.618,0.95,1.618,2.075l29.285-22.43c-0.352-0.773-0.844-1.464-1.477-2.074L20.27,38.461z M22.907,41.907
	c0.446,0.023,0.774,0.136,0.985,0.334c0.211,0.199,0.316,0.487,0.316,0.861c0,0.329-0.152,0.809-0.457,1.442L52.86,22.29
	c-0.281-1.007-0.586-1.886-0.914-2.637L22.907,41.907z M52.333,8.649c3.539,1.876,5.742,4.852,6.609,8.93l9.036-6.856
	c-0.821-4.311-3.047-7.254-6.68-8.824L52.333,8.649z"/>
</svg>
