<?xml version="1.0" encoding="utf-8"?>
<!-- Generator: Adobe Illustrator 17.0.0, SVG Export Plug-In . SVG Version: 6.00 Build 0)  -->
<!DOCTYPE svg PUBLIC "-//W3C//DTD SVG 1.1//EN" "http://www.w3.org/Graphics/SVG/1.1/DTD/svg11.dtd">
<svg version="1.1" id="Layer_1" xmlns="http://www.w3.org/2000/svg" xmlns:xlink="http://www.w3.org/1999/xlink" x="0px" y="0px"
	 width="72px" height="52.031px" viewBox="-2.208 0.091 72 52.031" enable-background="new -2.208 0.091 72 52.031"
	 xml:space="preserve">
<path d="M25.776,21.501l-4.957,3.023l-2.636-1.582c-0.469-1.406-2.075-2.707-4.817-3.902l-7.312-3.199
	c-5.508-2.413-8.262-5.402-8.262-8.965c0-1.899,0.709-3.503,2.127-4.817c1.418-1.312,3.135-1.968,5.15-1.968
	c2.883,0,5.414,0.972,7.594,2.918c2.156,1.946,3.234,4.207,3.234,6.785c0,0.188-0.046,0.832-0.14,1.933l-0.035,0.809
	c-0.047,0.516-0.071,0.902-0.071,1.16c0,1.688,1.336,3.142,4.008,4.359c0.469,0.235,0.926,0.481,1.371,0.739L25.776,21.501z
	 M18.534,28.11L58.261,3.325c0.679-0.093,1.324-0.141,1.933-0.141c3.235,0,6.434,0.646,9.598,1.934L27.569,29.622
	c-1.312,0.773-2.214,1.254-2.707,1.441l-0.773,0.282c-2.016,0.751-3.024,2.097-3.024,4.042v0.317l0.071,0.879l0.105,1.722
	c0.164,3.188-1.558,6.282-5.168,9.282c-3.609,3.023-7.406,4.535-11.39,4.535c-2.016,0-3.668-0.511-4.957-1.533
	c-1.289-1.023-1.934-2.322-1.934-3.897c0-2.044,2.004-4.324,6.012-6.84l11.144-6.939c2.438-1.52,3.657-2.887,3.657-4.102
	C18.605,28.672,18.581,28.437,18.534,28.11 M5.069,12.325l1.723,0.844c1.547,0.726,2.801,1.09,3.762,1.09
	c1.875,0,2.812-1.313,2.812-3.938c0-1.921-0.867-3.691-2.601-5.308C9.03,3.395,7.12,2.587,5.034,2.587
	c-1.242,0-2.314,0.434-3.217,1.301C0.915,4.755,0.464,5.786,0.464,6.981C0.464,8.973,1.999,10.756,5.069,12.325 M12.206,37.664
	l-8.051,5.001c-2.461,1.556-3.691,2.91-3.691,4.064c0,0.943,0.375,1.649,1.125,2.12s1.875,0.706,3.375,0.706
	c3.094,0,6.129-1.207,9.105-3.621c2.977-2.413,4.465-4.874,4.465-7.382c0-1.688-0.738-2.532-2.215-2.532
	C15.429,36.02,14.058,36.569,12.206,37.664 M27.534,27.759c1.149,0,1.723-0.55,1.723-1.653c0-1.101-0.574-1.652-1.723-1.652
	c-1.125,0-1.687,0.551-1.687,1.652C25.847,27.209,26.409,27.759,27.534,27.759 M29.96,30.325l5.414-3.234l34.418,19.757
	c-2.883,1.173-5.637,1.758-8.262,1.758c-1.054,0-2.191-0.093-3.41-0.281L29.96,30.325z"/>
</svg>
