<?xml version="1.0" encoding="utf-8"?>
<!-- Generator: Adobe Illustrator 17.0.0, SVG Export Plug-In . SVG Version: 6.00 Build 0)  -->
<!DOCTYPE svg PUBLIC "-//W3C//DTD SVG 1.1//EN" "http://www.w3.org/Graphics/SVG/1.1/DTD/svg11.dtd">
<svg version="1.1" id="Layer_1" xmlns="http://www.w3.org/2000/svg" xmlns:xlink="http://www.w3.org/1999/xlink" x="0px" y="0px"
	 width="60.717px" height="53px" viewBox="-0.253 128.609 60.717 53" enable-background="new -0.253 128.609 60.717 53"
	 xml:space="preserve">
<path d="M45.924,166.146c0,2.028-3.002,3.728-9.007,5.102c-0.683,0.143-1.202,0.701-1.295,1.393c-0.042,0.739-0.042,1.479,0,2.217
	c0.05,1.215,0.241,2.42,0.569,3.591c0.311,1.028,0.509,2.088,0.589,3.159H12.31c0-0.746,0-1.844,0-3.277s0-2.629,0-3.355
	c0-4.958-1.419-8.496-4.258-10.616c-2.84-1.996-5.107-4.703-6.573-7.849c-1.283-3.393-1.864-7.011-1.707-10.635
	c0-4.592,2.335-8.693,7.044-12.264c3.881-3.174,8.723-4.938,13.736-5.004h1.393c7.849,0,12.427,1.668,13.736,5.004
	c0.294,1.315,0.687,2.747,1.177,4.317c0.262,0.321,0.498,0.662,0.706,1.02c0.023,0.412,0.023,0.824,0,1.236
	c-0.124,1.268,0.322,2.526,1.217,3.434c0.904,0.591,1.889,1.047,2.924,1.354c1.325,0.418,2.539,1.128,3.552,2.08
	c0.145,0.139,0.23,0.329,0.235,0.53c0,0.373-0.628,0.962-1.962,1.786c-1.334,0.824-1.962,1.609-1.962,2.335
	c-0.02,0.503,0.226,0.98,0.648,1.256c0.279,0.187,0.542,0.397,0.785,0.628c-0.959,0.775-1.869,1.607-2.728,2.492
	c-0.569,0.667-1.217,1.511-1.962,2.512c2.007,0.63,4.097,0.954,6.201,0.962c0.196,0,0.314,0.157,0.314,0.471
	c-0.022,0.634-0.197,1.254-0.51,1.805c-0.233,0.367-0.399,0.772-0.491,1.197c0,0.353,0.353,0.785,1.04,1.315
	C45.485,164.74,45.878,165.41,45.924,166.146z M59.404,141.972l-11.126,10.557l-0.746-0.687l9.811-11.773L59.404,141.972z
	 M59.404,168.815l-1.962,1.825l-9.811-11.773l0.746-0.648L59.404,168.815z M60.464,157.042l-11.283-0.706v-1.177l11.283-1.374
	V157.042z"/>
</svg>
