<?xml version="1.0" encoding="utf-8"?>
<!-- Generator: Adobe Illustrator 17.0.0, SVG Export Plug-In . SVG Version: 6.00 Build 0)  -->
<!DOCTYPE svg PUBLIC "-//W3C//DTD SVG 1.1//EN" "http://www.w3.org/Graphics/SVG/1.1/DTD/svg11.dtd">
<svg version="1.1" id="Layer_1" xmlns="http://www.w3.org/2000/svg" xmlns:xlink="http://www.w3.org/1999/xlink" x="0px" y="0px"
	 width="53.851px" height="53px" viewBox="0 94.835 53.851 53" enable-background="new 0 94.835 53.851 53" xml:space="preserve">
<path d="M26.925,140.009l-9.36,7.827l-2.101-11.997H3.246l6.093-10.568L0,117.401l11.451-4.202L9.35,101.202l11.451,4.202
	l6.125-10.568l6.125,10.568l11.451-4.202L42.4,113.199l11.451,4.202l-9.35,7.869l6.093,10.568H38.408l-2.101,11.997L26.925,140.009z
	 M26.925,138.128c4.237,0.081,8.32-1.592,11.283-4.622c3.044-2.957,4.732-7.04,4.664-11.283c0.067-4.243-1.621-8.326-4.664-11.283
	c-2.941-3.077-7.027-4.796-11.283-4.748c-4.246-0.071-8.331,1.622-11.283,4.675c-3.051,2.953-4.743,7.037-4.675,11.283
	c-0.085,4.272,1.613,8.387,4.685,11.356C18.616,136.531,22.692,138.202,26.925,138.128L26.925,138.128z"/>
</svg>
