<?xml version="1.0" encoding="utf-8"?>
<!-- Generator: Adobe Illustrator 17.0.0, SVG Export Plug-In . SVG Version: 6.00 Build 0)  -->
<!DOCTYPE svg PUBLIC "-//W3C//DTD SVG 1.1//EN" "http://www.w3.org/Graphics/SVG/1.1/DTD/svg11.dtd">
<svg version="1.1" id="Layer_1" xmlns="http://www.w3.org/2000/svg" xmlns:xlink="http://www.w3.org/1999/xlink" x="0px" y="0px"
	 width="65.918px" height="53.332px" viewBox="0.864 -1.014 65.918 53.332" enable-background="new 0.864 -1.014 65.918 53.332"
	 xml:space="preserve">
<path d="M62.915,3.943c1.898,3.187,3.187,6.798,3.867,10.828c-2.063,0.445-4.102,0.668-6.117,0.668
	c-3.422,0-7.02-0.901-10.793-2.707v-0.738c0-3.468-5.262-5.203-15.785-5.203c-10.875,0-16.313,1.735-16.313,5.203v0.738
	c-3.609,2.133-7.172,3.199-10.687,3.199c-2.086,0-4.16-0.386-6.223-1.16c0.652-3.797,1.947-7.405,3.884-10.828
	c4.454-1.664,9.091-2.905,13.908-3.727c4.817-0.82,9.817-1.23,14.999-1.23c5.369,0,10.492,0.41,15.369,1.23
	C53.9,1.038,58.53,2.279,62.915,3.943 M17.774,14.771v1.301c0,2.812-0.814,4.857-2.443,6.135s-4.237,1.916-7.822,1.916
	c-2.579,0-4.331-0.427-5.256-1.284c-0.926-0.855-1.389-2.478-1.389-4.869v-1.511c2.367,0.773,4.512,1.16,6.434,1.16
	C10.907,17.619,14.399,16.67,17.774,14.771 M28.637,16.74h10.407v-4.746h7.804v6.574l9.282,14.801
	c1.359,2.157,2.25,3.92,2.672,5.291c0.421,1.371,0.632,3.181,0.632,5.431v8.227H8.212v-8.227c0-3.492,1.174-7.113,3.525-10.863
	l9.096-14.66v-6.574h7.804V16.74z M24.067,25.423h4.324V22.4h-4.324V25.423z M24.067,30.627h4.324v-3.023h-4.324V30.627z
	 M24.067,35.83h4.324v-3.023h-4.324V35.83z M31.45,25.423h4.324V22.4H31.45V25.423z M31.45,30.627h4.324v-3.023H31.45V30.627z
	 M31.45,35.83h4.324v-3.023H31.45V35.83z M38.833,25.423h4.324V22.4h-4.324V25.423z M38.833,30.627h4.324v-3.023h-4.324V30.627z
	 M38.833,35.83h4.324v-3.023h-4.324V35.83z M66.782,16.318v1.687c0,2.18-0.463,3.674-1.389,4.483
	c-0.925,0.809-2.642,1.213-5.15,1.213c-3.516,0-6.123-0.62-7.822-1.863c-1.7-1.243-2.549-3.152-2.549-5.731v-1.582
	c3.328,1.781,6.914,2.672,10.758,2.672C62.833,17.197,64.884,16.904,66.782,16.318"/>
</svg>
