<?xml version="1.0" encoding="utf-8"?>
<!-- Generator: Adobe Illustrator 17.0.0, SVG Export Plug-In . SVG Version: 6.00 Build 0)  -->
<!DOCTYPE svg PUBLIC "-//W3C//DTD SVG 1.1//EN" "http://www.w3.org/Graphics/SVG/1.1/DTD/svg11.dtd">
<svg version="1.1" id="Layer_1" xmlns="http://www.w3.org/2000/svg" xmlns:xlink="http://www.w3.org/1999/xlink" x="0px" y="0px"
	 width="36.422px" height="44.93px" viewBox="287.157 372.895 36.422 44.93" enable-background="new 287.157 372.895 36.422 44.93"
	 xml:space="preserve">
<path d="M321.857,411.637h-5.239c-2.414,2.766-5.027,4.794-7.84,6.082c-0.89,0.071-1.546,0.106-1.968,0.106
	c-1.196,0-2.555-0.211-4.078-0.633l-1.266,0.633h-1.512c-3.445,0-5.168-1.231-5.168-3.692c0-0.14,0.024-0.351,0.071-0.632
	c-2.532-0.211-3.797-1.42-3.797-3.628c0-0.235,0.023-0.563,0.07-0.986c-0.937-0.255-1.646-0.674-2.127-1.256
	c-0.48-0.581-0.721-1.314-0.721-2.199c0-0.72,0.247-1.489,0.743-2.302c-1.246-1.364-1.868-2.881-1.868-4.55
	c0-1.928,1.043-3.48,3.129-4.655c2.086-1.176,4.852-1.764,8.297-1.764h0.879c-0.281-2.11-0.926-4.149-1.934-6.117l-0.562-0.985
	c-1.219-2.32-1.828-4.113-1.828-5.379c0-3.492,1.84-5.672,5.519-6.539l1.02-0.246l1.758,7.805l6.504,6.926
	c0.445,0.515,1.218,1.511,2.32,2.988l0.984,1.301c1.055,1.429,1.799,2.302,2.233,2.619c0.433,0.316,1.131,0.475,2.092,0.475h4.113
	c1.265,2.695,1.898,5.461,1.898,8.296C323.579,406.071,323.005,408.848,321.857,411.637 M320.696,409.809
	c0.727-2.132,1.09-4.171,1.09-6.117c0-2.297-0.398-4.558-1.195-6.785c-2.953,0-4.805-0.176-5.555-0.527
	c-0.75-0.352-1.875-1.582-3.375-3.692c-0.609-0.82-1.511-1.98-2.707-3.48l-7.066-7.524l-1.406-6.504
	c-2.344,0.797-3.516,2.298-3.516,4.5c0,1.149,0.398,2.391,1.195,3.727l0.457,0.773c1.828,3.047,2.742,5.954,2.742,8.719l0.036,0.985
	h-1.269c-3.738,0-6.547,0.371-8.427,1.112c-1.881,0.741-2.82,1.864-2.82,3.37c0,1.364,0.486,2.517,1.461,3.458
	c0.975,0.941,2.166,1.411,3.574,1.411h2.149l6.386-2.867c-0.961-1.464-2.25-2.195-3.867-2.195c-0.422,0-0.961,0.094-1.617,0.283
	c-0.656,0.189-1.43,0.472-2.32,0.849l-1.653,0.072l-1.652-1.767l2.848-0.035c0.82-0.352,1.57-0.609,2.25-0.774
	c0.679-0.163,1.3-0.246,1.863-0.246c3,0,5.191,1.531,6.574,4.592l-1.195,0.567c1.476,0.72,2.613,1.974,3.41,3.764l-1.371,0.59
	c1.078,0.68,2.074,1.839,2.988,3.478l-2.18,1.037c1.196,0.867,2.157,2.097,2.883,3.691l-4.324,1.934
	c0.703,0.14,1.301,0.211,1.793,0.211l1.371-0.035c3.117-1.805,5.649-3.996,7.594-6.575H320.696z M304.665,404.712
	c-0.82-1.085-1.805-1.779-2.953-2.079l-5.271,2.325h-1.854c-1.748,0-3.076-0.246-3.984-0.739c-0.305,0.418-0.457,0.813-0.457,1.183
	c0,0.72,0.357,1.26,1.072,1.618c0.715,0.36,1.787,0.539,3.217,0.539h3.726L304.665,404.712z M306.142,408.816
	c-0.117-0.141-0.211-0.26-0.282-0.355c-0.562-0.662-1.23-1.182-2.003-1.561l-5.379,2.382h-5.696l-0.105,0.452
	c0,1.387,1.371,2.079,4.113,2.079h2.637L306.142,408.816z M306.88,413.571c-0.164-0.211-0.293-0.374-0.387-0.492
	c-0.445-0.633-1.008-1.207-1.687-1.723l-5.028,2.25h-3.269v0.211c0,1.57,1.145,2.356,3.436,2.356h1.169L306.88,413.571z"/>
</svg>
