<?xml version="1.0" encoding="utf-8"?>
<!-- Generator: Adobe Illustrator 24.0.2, SVG Export Plug-In . SVG Version: 6.00 Build 0)  -->
<svg version="1.1" id="Layer_1" xmlns="http://www.w3.org/2000/svg" xmlns:xlink="http://www.w3.org/1999/xlink" x="0px" y="0px"
	 viewBox="0 0 18.6 18.6" style="enable-background:new 0 0 18.6 18.6;" xml:space="preserve">
<g>
	<path d="M18.2,9.3c0,2.5-0.9,4.6-2.6,6.3c-1.7,1.7-3.9,2.6-6.3,2.6S4.7,17.4,3,15.6c-1.7-1.7-2.6-3.9-2.6-6.3S1.2,4.7,3,3
		c1.7-1.7,3.9-2.6,6.3-2.6s4.6,0.9,6.3,2.6C17.4,4.7,18.2,6.8,18.2,9.3z M13.9,15.2L3.4,4.6C2.3,6,1.8,7.5,1.8,9.3
		c0,2.1,0.7,3.8,2.2,5.3s3.2,2.2,5.3,2.2C11,16.8,12.6,16.3,13.9,15.2z M16.8,9.3c0-2.1-0.7-3.8-2.2-5.3c-1.5-1.5-3.2-2.2-5.3-2.2
		c-1.9,0-3.5,0.6-4.9,1.8L15,14.2C16.2,12.8,16.8,11.1,16.8,9.3z"/>
</g>
</svg>
