<?xml version="1.0" encoding="utf-8"?>
<!-- Generator: Adobe Illustrator 24.0.2, SVG Export Plug-In . SVG Version: 6.00 Build 0)  -->
<svg version="1.1" id="Layer_1" xmlns="http://www.w3.org/2000/svg" xmlns:xlink="http://www.w3.org/1999/xlink" x="0px" y="0px"
	 viewBox="0 0 18.6 18.6" style="enable-background:new 0 0 18.6 18.6;" xml:space="preserve">
<g>
	<path d="M8.9,16.8c-1.8-0.1-3.4-0.7-4.7-2c0,0.2,0.1,0.3,0.1,0.4c0,0.6-0.3,0.9-0.9,0.9s-0.9-0.3-0.9-0.9c0-0.6,0.3-0.9,0.9-0.9
		c0.1,0,0.2,0,0.4,0.1C2.5,13,1.9,11.4,1.8,9.6c-0.2,0.4-0.5,0.6-0.9,0.6C0.3,10.2,0,9.9,0,9.3c0-0.6,0.3-0.9,0.9-0.9
		c0.4,0,0.6,0.2,0.9,0.6c0-1.7,0.6-3.3,1.9-4.7c-0.2,0-0.3,0.1-0.4,0.1C2.7,4.3,2.4,4,2.4,3.4c0-0.6,0.3-0.9,0.9-0.9
		s0.9,0.3,0.9,0.9c0,0.1,0,0.2-0.1,0.4c1.4-1.2,2.9-1.9,4.7-1.9C8.5,1.6,8.4,1.3,8.4,0.9C8.4,0.3,8.7,0,9.3,0c0.6,0,0.9,0.3,0.9,0.9
		c0,0.4-0.2,0.7-0.6,0.9c1.8,0.1,3.3,0.7,4.7,1.9c0-0.2-0.1-0.3-0.1-0.4c0-0.6,0.3-0.9,0.9-0.9s0.9,0.3,0.9,0.9
		c0,0.6-0.3,0.9-0.9,0.9c-0.1,0-0.2,0-0.4-0.1c1.3,1.4,2,3,2,4.7c0.2-0.4,0.5-0.6,0.9-0.6c0.6,0,0.9,0.3,0.9,0.9
		c0,0.6-0.3,0.9-0.9,0.9c-0.3,0-0.6-0.2-0.9-0.6c-0.1,1.8-0.7,3.4-2,4.7c0.2,0,0.3-0.1,0.4-0.1c0.6,0,0.9,0.3,0.9,0.9
		c0,0.6-0.3,0.9-0.9,0.9s-0.9-0.3-0.9-0.9c0-0.1,0-0.2,0.1-0.4c-1.3,1.2-2.9,1.9-4.7,2c0.4,0.2,0.6,0.5,0.6,0.9
		c0,0.6-0.3,0.9-0.9,0.9c-0.6,0-0.9-0.3-0.9-0.9C8.4,17.3,8.5,17,8.9,16.8z M7.1,8.3C6.8,8.1,6.6,7.8,6.5,7.5C6,7.4,5.7,7.1,5.6,6.5
		C5.2,6.5,4.9,6.3,4.7,6c-0.5,0.8-0.8,1.6-1,2.5c0.2,0,0.3-0.1,0.4-0.1c0.2,0,0.4,0.1,0.6,0.3C5,8.4,5.2,8.4,5.4,8.4S5.8,8.4,6,8.6
		c0.2-0.2,0.4-0.3,0.6-0.3c0.1,0,0.2,0,0.4,0.1L7.1,8.3z M7,10.1c-0.2,0.1-0.3,0.1-0.4,0.1c-0.2,0-0.4-0.1-0.6-0.3
		c-0.2,0.2-0.4,0.3-0.7,0.3c-0.2,0-0.4-0.1-0.7-0.3c-0.2,0.2-0.4,0.3-0.6,0.3c-0.1,0-0.2,0-0.4-0.1c0.2,0.9,0.5,1.7,1,2.5
		c0.2-0.3,0.5-0.5,0.9-0.6c0.1-0.5,0.4-0.9,0.9-0.9c0-0.4,0.2-0.7,0.6-0.9L7,10.1z M8.4,7.1C8.4,6.9,8.4,6.8,8.4,6.7
		c0-0.2,0.1-0.4,0.3-0.6C8.4,5.8,8.4,5.6,8.4,5.4S8.4,5,8.6,4.7C8.4,4.5,8.4,4.3,8.4,4.1c0-0.1,0-0.2,0.1-0.4C7.5,3.9,6.7,4.2,6,4.8
		c0.3,0.2,0.5,0.5,0.6,0.9C7.1,5.7,7.4,6,7.5,6.5c0.4,0,0.7,0.2,0.9,0.6L8.4,7.1z M8.3,11.5C8.1,11.8,7.8,12,7.4,12
		c-0.1,0.6-0.4,0.9-0.9,0.9c0,0.4-0.2,0.7-0.6,0.9c0.8,0.5,1.6,0.8,2.5,1c-0.1-0.2-0.1-0.3-0.1-0.4c0-0.2,0.1-0.4,0.3-0.6
		c-0.2-0.2-0.3-0.4-0.3-0.6c0-0.2,0.1-0.4,0.3-0.7c-0.2-0.2-0.3-0.4-0.3-0.6c0-0.1,0-0.2,0.1-0.4L8.3,11.5z M9.3,10.5
		c0.3,0,0.6-0.1,0.9-0.4c0.2-0.2,0.4-0.5,0.4-0.9c0-0.3-0.1-0.6-0.4-0.9C9.9,8.2,9.6,8,9.3,8C8.9,8,8.6,8.2,8.4,8.4
		C8.2,8.6,8,8.9,8,9.3c0,0.3,0.1,0.6,0.4,0.9C8.6,10.4,8.9,10.5,9.3,10.5z M10.1,7.1l0.1,0c0.2-0.3,0.5-0.5,0.9-0.6
		C11.2,6,11.5,5.7,12,5.6c0-0.4,0.2-0.7,0.6-0.9c-0.8-0.5-1.6-0.8-2.5-1c0,0.2,0.1,0.3,0.1,0.4c0,0.2-0.1,0.4-0.3,0.6
		c0.2,0.2,0.3,0.5,0.3,0.7s-0.1,0.4-0.3,0.6c0.2,0.2,0.3,0.4,0.3,0.6C10.2,6.8,10.2,6.9,10.1,7.1z M10.2,11.5l-0.1,0
		c0,0.2,0.1,0.3,0.1,0.4c0,0.2-0.1,0.4-0.3,0.6c0.2,0.2,0.3,0.5,0.3,0.7c0,0.2-0.1,0.4-0.3,0.7c0.2,0.2,0.3,0.4,0.3,0.6
		c0,0.1,0,0.2-0.1,0.4c0.9-0.2,1.7-0.5,2.5-1c-0.3-0.2-0.5-0.5-0.6-0.9c-0.6-0.1-0.9-0.4-0.9-0.9C10.7,12,10.4,11.8,10.2,11.5z
		 M11.5,8.3l0,0.1c0.2,0,0.3-0.1,0.4-0.1c0.2,0,0.4,0.1,0.6,0.3c0.2-0.2,0.4-0.3,0.6-0.3c0.2,0,0.4,0.1,0.7,0.3
		c0.2-0.2,0.4-0.3,0.6-0.3c0.1,0,0.2,0,0.4,0.1c-0.2-0.9-0.5-1.7-1-2.5c-0.2,0.3-0.5,0.5-0.9,0.6c-0.1,0.5-0.4,0.9-0.9,0.9
		C12,7.8,11.8,8.1,11.5,8.3z M11.5,10.1l0,0.1c0.3,0.2,0.5,0.5,0.6,0.9c0.5,0.1,0.9,0.4,0.9,0.9c0.4,0.1,0.7,0.2,0.8,0.6
		c0.5-0.8,0.8-1.6,1-2.5c-0.2,0.1-0.3,0.1-0.4,0.1c-0.2,0-0.4-0.1-0.6-0.3c-0.2,0.2-0.4,0.3-0.6,0.3c-0.2,0-0.5-0.1-0.7-0.3
		c-0.2,0.2-0.4,0.3-0.6,0.3C11.8,10.2,11.7,10.2,11.5,10.1z"/>
</g>
</svg>
