<svg version="1.1" id="Layer_1" xmlns="http://www.w3.org/2000/svg" xmlns:xlink="http://www.w3.org/1999/xlink" x="0px" y="0px" width="70px" height="53.639px" viewBox="-13.127 0 70 53.639" enable-background="new -13.127 0 70 53.639" xml:space="preserve"> <path d="M11.138,13.427v4.694c8.238,3.361,12.357,9.101,12.357,17.224c0,5.063-1.789,9.377-5.368,12.944 c-3.578,3.568-7.899,5.35-12.961,5.35c-5.04,0-9.348-1.782-12.926-5.35c-3.579-3.567-5.368-7.857-5.368-12.874 c0-7.916,4.119-13.681,12.357-17.294v-4.694c1.151-0.598,2.577-1.036,4.28-1.312v-0.725c0-2.369,0.772-4.366,2.313-5.989 c1.541-1.622,3.428-2.433,5.661-2.433c3.014,0,6.65,1.829,10.907,5.488l1.829,1.588c4.418,3.797,8.019,5.695,10.804,5.695 c0.944,0,2.117-0.367,3.521-1.105c0.207-0.116,0.483-0.173,0.829-0.173c1.058,0,1.588,0.426,1.588,1.277 c0,0.897-0.627,1.691-1.881,2.381c-1.254,0.69-2.686,1.036-4.297,1.036c-3.428,0-7.686-2.14-12.771-6.42l-1.968-1.657 c-3.728-3.128-6.604-4.694-8.629-4.694c-2.992,0-4.487,1.911-4.487,5.73C8.423,12.439,9.827,12.875,11.138,13.427 M27.499,1.139 L28.88,0l8.492,11.184L27.499,1.139z M34.506,32.48l-1.623-0.586l5.765-12.84L34.506,32.48z M39.442,0h1.76l-0.829,10.114L39.442,0z M46.173,28.339l-1.657,0.586l-2.554-9.802L46.173,28.339z M51.696,0l1.415,1.07l-9.665,10.148L51.696,0z M56.873,23.437 l-0.829,1.416l-11.631-7.766L56.873,23.437z M54.871,11.425l0.276,1.622L44.999,13.98L54.871,11.425z"/> </svg>