<svg id="Layer_1" data-name="Layer 1" xmlns="http://www.w3.org/2000/svg" viewBox="0 0 248.89 233.28"><defs><style>.cls-1{fill:#231f20;}</style></defs><path class="cls-1" d="M234.06,162.36l11.19,23.33q8.19,16.88,8.19,32.63v18H4.56v-18q0-15.62,8.19-32.63l11.19-23.33Zm-5.1,7.72H28.42l-9.87,21.34q-6.27,13.59-6.27,22v15.17H245.72v-5.84a75.6,75.6,0,0,0-7.21-31.62ZM234.06,3V154.63H23.94V3Zm-7.73,7.72H31.67V146.91H226.33ZM39.39,115.23V42.41q0-16.08,4-20t20.37-3.94H194.29q16.43,0,20.37,3.94t4,20v72.82q0,15.93-4,19.86T194.29,139H63.71q-16.27,0-20.29-3.94T39.39,115.23Zm1.1,64.62H59.88v7.73H79.74v-7.73H98.81v7.73h19.71v-7.73h19.23v7.73h19.7v-7.73h19.23v7.73h19.55v-7.73h19.38v7.73H196.38v8h19.23V203H196.23v-7.41H176.68V203H157.45v-7.41H137.59V203H118.52v-7.41H98.81V203H79.74v-7.41H59.88V203H40.49V195.3H59.72v-7.72H40.49ZM47.11,42.43v72.62q0,10.89,2.77,13.58t13.82,2.68H193.83q11.37,0,14.21-2.6t2.85-13.19V42.12c0-7.06-1-11.47-2.93-13.27s-6.66-2.68-14.13-2.68H63.7q-11.06,0-13.82,2.61T47.11,42.43ZM79.43,195.3H98.81v-7.41H79.43Zm39.09,0h19.23v-7.41H118.52Zm38.93,0h19.23v-7.41H157.45Z" transform="translate(-4.56 -3)"/></svg>