<svg id="Layer_1" data-name="Layer 1" xmlns="http://www.w3.org/2000/svg" viewBox="0 0 66.8 52.03"><defs><style>.cls-1{fill:#231f20;}</style></defs><path class="cls-1" d="M0,52.09V11.35C0,8.44,1.47,7,4.35,7h2A3.65,3.65,0,0,0,8.5,6.51a3.23,3.23,0,0,0,1-1.84l.35-1.41c.4-1.48.88-2.38,1.44-2.71A10.51,10.51,0,0,1,15.39.06h13.5a8.35,8.35,0,0,1,3.6.51,3.65,3.65,0,0,1,1.39,2.34l.39,1.51a3.93,3.93,0,0,0,1.07,2.2,7,7,0,0,0,3,.37H62.53a4.78,4.78,0,0,1,3.38.91c.61.61.91,1.75.91,3.41V52.09Zm1.73-1.86,63.35.25V11.31a2.3,2.3,0,0,0-2.6-2.6H4.59c-1.89,0-2.84.87-2.84,2.6ZM10.82,7H33l-.7-2.67a3.73,3.73,0,0,0-1-2.11,5.17,5.17,0,0,0-2.6-.43H15.77a7.35,7.35,0,0,0-3.07.41,3.13,3.13,0,0,0-1.14,2Z" transform="translate(-0.02 -0.06)"/></svg>