<svg id="Layer_1" data-name="Layer 1" xmlns="http://www.w3.org/2000/svg" viewBox="0 0 84.66 52.03"><defs><style>.cls-1{fill:#231f20;}</style></defs><path class="cls-1" d="M1.12,54.66V13.91c0-2.9,1.44-4.36,4.32-4.36h2a3.7,3.7,0,0,0,2.14-.47,3.33,3.33,0,0,0,1-1.85l.35-1.41q.56-2.21,1.44-2.7c.56-.33,1.92-.49,4.08-.49H29.88a9.41,9.41,0,0,1,3.72.45A4.19,4.19,0,0,1,35,5.54l.39,1.3A5,5,0,0,0,36.5,9.2a6.63,6.63,0,0,0,2.83.35h24.3q2.49,0,3.39.93c.6.62.9,1.79.9,3.5v3.38h14c2.53,0,3.84.44,3.91,1.33a13.91,13.91,0,0,1-1.24,2.85L67.92,54.66Zm1.72-3.59L18,21.61q1.65-3.19,2.57-3.73c.6-.35,2.19-.52,4.74-.52H66.19V14c0-1.8-.88-2.71-2.63-2.71H39.12A12.36,12.36,0,0,1,35,10.89c-.51-.26-.93-1.06-1.26-2.39l-.42-1.62a4,4,0,0,0-1-2.13,5.26,5.26,0,0,0-2.58-.4h-13a7.17,7.17,0,0,0-3,.42,3.13,3.13,0,0,0-1.2,2l-.42,1.62a4.6,4.6,0,0,1-1.25,2.46,6.5,6.5,0,0,1-3,.45H5.62a3.46,3.46,0,0,0-2.23.51A3,3,0,0,0,2.84,14ZM3.9,52.93H66.79L82.37,21.72a11.63,11.63,0,0,0,.77-1.9c-.07-.5-.8-.74-2.18-.74H24.22a6,6,0,0,0-2.82.46,5,5,0,0,0-1.58,2.07Z" transform="translate(-1.12 -2.63)"/></svg>