<svg id="Layer_1" data-name="Layer 1" xmlns="http://www.w3.org/2000/svg" viewBox="0 0 700.78 689.28"><defs><style>.cls-1{fill:#231f20;}</style></defs><path class="cls-1" d="M28,51.74l2.54,1.78c11.3,7.54,13.28,10.21,13.28,18v2.66l35-22.42,20.63,16,13.28-10,4,3.55c-12.44,9.1-14.42,13.31-14.42,28.63V127.2c0,14.2,1.13,17.75,6.5,17.75,2.26,0,3.39-.66,6.78-2.66.29-.67,1.14-.67,2-1.33l3.39,4.21L91.56,164l-3.11-2.22c-13-9.32-13.85-11.32-13.85-30.41V75.71L63.3,67.06,43.8,79.71v60.8l9.89,8L29.11,164,5.37,147.84l11-7.77V83.26c0-11.76-1.13-13.76-6.5-13.76-1.69,0-3.11.44-6.78,2.22L0,68.39Z" transform="translate(0 -7.36)"/><path class="cls-1" d="M155.42,51.74l23.45,16.2-9.61,6.44v63.69l12.72,8,19.5-14.2V74.38l-9.61-6.44,22.6-16.2,24,16.2-9.32,6.44V133c0,9.1,2,12.43,7.35,12.43,2,0,3.39-.45,6.49-2.22l4,3.77L219,164l-3.4-2.22c-11.58-6.66-14.12-10.88-14.12-22v-2.44l-37,26.63c-11.87-8.88-19.78-13.32-30.8-16.87v-2.88c7.34-2.22,8.19-3.55,8.19-15.54V75.27l-5.93-3.55L130,75.27l-3.67-3.55Z" transform="translate(0 -7.36)"/><path class="cls-1" d="M296.42,23.12V56.18h23.45v12H296.42v70.57a116.79,116.79,0,0,1,13.28,7.77l8.76-5.55,4.24,3.55L292.75,164a75.54,75.54,0,0,0-33.06-15.54v-2.88c7.91-4.66,9-7.1,9-21.31V68.17H256.58V64.39Z" transform="translate(0 -7.36)"/><path class="cls-1" d="M324.39,148.73l11.31-7.33V37.76c0-11.32-2.55-15.75-12.16-22.19l2.27-3.11c7.06,2.22,12.15,5.11,20.62,11.1,7.63-7.1,17.52-11.1,32.78-13.32l1.7,2.67C367.34,19.34,364.24,24,364.24,37.1V76.82l39.28-25.08c17,9.77,20.06,14.65,20.06,33.07V129c0,22.64-6.5,34.18-24.59,44.39-13,7.32-28.25,13.09-51.43,19.75l-1.69-3.77,3.39-1.33c22.61-8.22,31.65-12.88,37.58-19.76,6.22-6.88,7.63-12.65,7.63-29.29V85.7c0-9.77-1.41-12.43-9-17.31L364.24,82.15V141.4l8.76,8.21L348.13,164Z" transform="translate(0 -7.36)"/><path class="cls-1" d="M471.9,164a204.6,204.6,0,0,0-26.85-18.2v-1.78c7.63-2.21,9-4.88,9-16.86V72.83l-9.89-6.66,23.18-14.43,23.73,15.1-9.61,6.88v68.35l7.92,5.77,8.47-5.55,3.11,3.55ZM477,7.36,500.15,8,477,33.1l-6.78-.44Z" transform="translate(0 -7.36)"/><path class="cls-1" d="M534.63,51.74l2.54,1.78c11.3,7.54,13.28,10.21,13.28,18v2.66l35-22.42,20.63,16,13.28-10,4,3.55c-12.44,9.1-14.42,13.31-14.42,28.63V127.2c0,14.2,1.13,17.75,6.5,17.75,2.26,0,3.39-.66,6.79-2.66.28-.67,1.13-.67,2-1.33l3.39,4.21L598.21,164l-3.11-2.22c-13-9.32-13.85-11.32-13.85-30.41V75.71L570,67.06l-19.5,12.65v60.8l9.89,8L535.76,164,512,147.84l11-7.77V83.26c0-11.76-1.13-13.76-6.5-13.76-1.69,0-3.11.44-6.78,2.22l-3.11-3.33Z" transform="translate(0 -7.36)"/><path class="cls-1" d="M645.11,64l-2.26-4.88c9.33-6,12.43-9.55,12.43-14.21s-2.54-8.21-10.45-14.42l-2-1.55,19.78-16,20.06,15.53C677.61,45.53,664,58.18,645.11,64Z" transform="translate(0 -7.36)"/><path class="cls-1" d="M395,409.26c6.79-3.33,7.63-5.77,7.63-20.86V305c0-11.54-2-15.09-12.43-22l1.7-2.66c7.91,2,11.58,3.55,20.91,9.32,9.89-8.21,17.52-11.32,31.93-13.09l.84,2.44c-12.15,6-15.25,11.54-15.25,27.29v38l40.12-26.18c17,11.31,18.93,14.42,18.93,32.62v60.81c-18.36,5.32-31.08,11.09-42.1,18.86-13-9.32-31.37-16-52.28-18.86Zm35.33-7.11,31.08,10.66v-59c0-10.87-1.7-14.64-8.48-19.3l-22.6,15.09Z" transform="translate(0 -7.36)"/><path class="cls-1" d="M533.49,318.05,557,334.25l-9.61,6.43v63.69l12.72,8,19.5-14.2V340.68L570,334.25l22.6-16.2,24,16.2-9.32,6.43v58.59c0,9.1,2,12.43,7.35,12.43,2,0,3.39-.45,6.49-2.22l4,3.77-28,17.09-3.39-2.22c-11.58-6.66-14.12-10.88-14.12-22v-2.44l-37,26.63c-11.87-8.88-19.78-13.32-30.8-16.87v-2.88c7.34-2.22,8.19-3.55,8.19-15.54V341.57L514,338l-5.94,3.55L504.39,338Z" transform="translate(0 -7.36)"/><path class="cls-1" d="M674.5,289.42v33.06H698v12H674.5V405a116.79,116.79,0,0,1,13.28,7.77l8.76-5.55,4.24,3.55-29.95,19.53a75.54,75.54,0,0,0-33.06-15.54v-2.88c7.91-4.66,9-7.1,9-21.31V334.47H634.66v-3.78Z" transform="translate(0 -7.36)"/><path class="cls-1" d="M432.62,584.35l2.54,1.77c11.3,7.55,13.28,10.21,13.28,18v2.66l35-22.41,20.63,16,13.28-10,4,3.55c-12.44,9.1-14.42,13.32-14.42,28.63V659.8c0,14.2,1.13,17.76,6.5,17.76,2.26,0,3.39-.67,6.79-2.67.28-.66,1.13-.66,2-1.33l3.39,4.22L496.2,696.64l-3.11-2.22c-13-9.32-13.85-11.32-13.85-30.4V608.31l-11.3-8.65-19.5,12.65v60.81l9.89,8-24.58,15.53L410,680.44l11-7.77V615.86c0-11.76-1.13-13.76-6.5-13.76-1.69,0-3.11.44-6.78,2.22L404.64,601Z" transform="translate(0 -7.36)"/><path class="cls-1" d="M580.4,696.64c-15.26-7.32-30.8-12.43-43.23-14.2v-2c7.35-3.55,9.32-7.32,9.32-20V621c0-10.87-1.13-12.42-8.47-12.42h-.85l-1.42-2.44,3.4-1.11a435.56,435.56,0,0,0,51.71-20.64l34.47,34.84L573.9,652.48v20.19c11,4.22,13.85,5.33,24.59,9.77l20.34-10.66,2.83,3.11Zm22.33-70.13L573.9,597.66v47.49Z" transform="translate(0 -7.36)"/><path class="cls-1" d="M674.5,555.72v33.07H698v12H674.5v70.57a118.3,118.3,0,0,1,13.28,7.77l8.76-5.55,4.24,3.55-29.95,19.53a75.53,75.53,0,0,0-33.06-15.53v-2.89c7.91-4.66,9-7.1,9-21.3V600.77H634.66V597Z" transform="translate(0 -7.36)"/></svg>