<svg id="Layer_1" data-name="Layer 1" xmlns="http://www.w3.org/2000/svg" viewBox="0 0 115.62 219.25"><defs><style>.cls-1{fill:#231f20;}</style></defs><path class="cls-1" d="M88.55,192.87v19.52q-17.37,6.87-31.23,6.86a71.37,71.37,0,0,1-31.63-6.86V197.32q-4.71-5.12-10.63-12A104.73,104.73,0,0,1,7.12,145V138.5a30.5,30.5,0,0,1-1.89-9.15c0-4.13.88-7.21,2.63-9.22s4.33-3,7.74-3a26.31,26.31,0,0,1,6.19,1.21,34.36,34.36,0,0,1-1.62-8.75q0-7.4,3.57-11T34.3,94.89q6.2,0,11.71,7.4c-.09-2.27-.13-4.1-.13-5.46,0-1.18,0-2.68,0-4.5L30.79,35.67q-4.56-16.83-4.56-21.54Q26.23,7,30,3.5T41.14,0q11.55,0,17.2,23.55L73.25,84.79,88.49,38.36q8.76-26.65,19.68-26.65a12.32,12.32,0,0,1,9,3.64,12,12,0,0,1,3.71,8.89q0,5.52-4.58,22.76L102.81,98.33a248.52,248.52,0,0,1,1.08,26.59l.14,5.77a83.11,83.11,0,0,1,5,20.73Q102.46,170.67,88.55,192.87ZM30.27,140.25l-3.5-8.08q-3.78-8.88-8.89-8.88a6.29,6.29,0,0,0-4.51,1.48,6.08,6.08,0,0,0-1.54,4.58q0,2.55,3.09,10L20,151.42q4,9.56,9,9.56a5.14,5.14,0,0,0,4.24-1.75,8,8,0,0,0,1.42-5.12Q34.71,149.81,30.27,140.25Zm52.22,49.93q9.83-14,17.9-34.72.67-1.76,2-5-.94-3.36-1.35-5a111.36,111.36,0,0,0-21-41.62l-27.33-3.64q0,18.73,23.83,19.94c-.18,3-.27,5.39-.27,7.27a107.38,107.38,0,0,0,1.88,19H71.59a74.73,74.73,0,0,1-1.89-16.83v-2.82A38.66,38.66,0,0,1,54,120.19l5.25,12.92q2.56,6.6,2.56,10.64,0,7.4-3.36,11.1t-10.23,3.7c-2.34,0-5.07-1-8.21-3q-.81,6.19-3.77,9.29A10.45,10.45,0,0,1,28.25,168q-6.19,0-10.77-7.53l-3-4.85a157.06,157.06,0,0,0,4.57,22.75q.4,1.22,1.08,3.36l12.38,14.14v12a80.14,80.14,0,0,0,25.58,4.58,70.56,70.56,0,0,0,24.36-4.58ZM49.22,127,43.67,113.3q-4.74-11.8-9.74-11.82a6.73,6.73,0,0,0-5.34,2.09c-1.21,1.38-1.82,3.47-1.82,6.24q0,5.5,3.24,13.15l5.28,12.75q6.75,16,13.12,16a6.61,6.61,0,0,0,5.07-1.81,7.56,7.56,0,0,0,1.69-5.31Q55.17,140.42,49.22,127ZM67.6,88.83,51.76,24.09Q47.46,6.2,40.61,6.19q-3.9,0-5.84,2t-2,6.06a26.16,26.16,0,0,0,1.08,6.32c.26,1.08.62,2.56,1.07,4.44q.93,3.91,1.47,5.79L53.06,93.54,83.3,97.91A94,94,0,0,1,97,117.77V96.54l13.16-51.71q4.07-15.75,4.06-20.73a5.78,5.78,0,0,0-1.48-4.38,6.5,6.5,0,0,0-4.6-1.42,6.58,6.58,0,0,0-5.87,3.37Q100.2,25,95.61,38.76L78.18,89.91Z" transform="translate(-5.23)"/></svg>