<svg id="Layer_1" data-name="Layer 1" xmlns="http://www.w3.org/2000/svg" viewBox="0 0 30.91 27.01"><defs><style>.cls-1{fill:#231f20;}</style></defs><path class="cls-1" d="M25.13,20.13q0,1.55-4.59,2.6a.84.84,0,0,0-.66.71,9.94,9.94,0,0,0,0,1.13,8,8,0,0,0,.29,1.83,7.48,7.48,0,0,1,.3,1.61H8c0-.38,0-.94,0-1.67S8,25,8,24.63q0-3.79-2.17-5.41a10.11,10.11,0,0,1-3.35-4A13.65,13.65,0,0,1,1.61,9.8c0-2.34,1.19-4.43,3.59-6.25a11.29,11.29,0,0,1,7-2.55h.71q6,0,7,2.55c.15.67.35,1.4.6,2.2a4.08,4.08,0,0,1,.36.52,5.63,5.63,0,0,1,0,.63,2.19,2.19,0,0,0,.62,1.75,5.66,5.66,0,0,0,1.49.69,4.71,4.71,0,0,1,1.81,1.06.39.39,0,0,1,.12.27c0,.19-.32.49-1,.91s-1,.82-1,1.19a.73.73,0,0,0,.33.64,3,3,0,0,1,.4.32A15.57,15.57,0,0,0,22.25,15c-.29.34-.62.77-1,1.28a10.68,10.68,0,0,0,3.16.49c.1,0,.16.08.16.24a2,2,0,0,1-.26.92,1.88,1.88,0,0,0-.25.61c0,.18.18.4.53.67A1.18,1.18,0,0,1,25.13,20.13ZM32,7.81l-5.67,5.38-.38-.35,5-6Zm0,13.68-1,.93-5-6,.38-.33Zm.54-6-5.75-.36v-.6l5.75-.7Z" transform="translate(-1.61 -1)"/></svg>