<svg id="Layer_1" data-name="Layer 1" xmlns="http://www.w3.org/2000/svg" viewBox="0 0 51.26 50.45"><defs><style>.cls-1{fill:#231f20;}</style></defs><path class="cls-1" d="M25.91,43.19,17,50.64,15,39.22H3.37l5.8-10.06L.28,21.67l10.9-4-2-11.42,10.9,4L25.91.19l5.83,10.06,10.9-4-2,11.42,10.9,4-8.9,7.49,5.8,10.06H36.84l-2,11.42Zm0-1.79A14.63,14.63,0,0,0,36.65,37a14.65,14.65,0,0,0,4.44-10.74,14.65,14.65,0,0,0-4.44-10.74A14.63,14.63,0,0,0,25.91,11a14.6,14.6,0,0,0-10.74,4.45,14.62,14.62,0,0,0-4.45,10.74A14.63,14.63,0,0,0,15.18,37,14.66,14.66,0,0,0,25.91,41.4Z" transform="translate(-0.28 -0.19)"/></svg>