<?xml version="1.0" encoding="utf-8"?>
<!-- Generator: Adobe Illustrator 27.2.0, SVG Export Plug-In . SVG Version: 6.00 Build 0)  -->
<svg version="1.1" id="Layer_1" xmlns="http://www.w3.org/2000/svg" xmlns:xlink="http://www.w3.org/1999/xlink" x="0px" y="0px"
	 viewBox="0 0 101 100" style="enable-background:new 0 0 101 100;" xml:space="preserve">
<style type="text/css">
	.st0{fill:#2C813F;}
</style>
<path class="st0" d="M87.2,97.8c-3.3,0.3-6.6-0.1-9.8,0.3c-0.4,0.1-1,0.1-1-0.5c0-0.5,0.5-0.6,1-0.7c2.5-0.7,2.8-1.1,2.6-3.4
	c-0.3-3.8-0.1-7.5-0.4-11.3c-0.4-4.8-0.3-9.7-0.4-14.6C79,64,79,64,75.2,62.9c2.3-1.6,5.1-2.3,6.7-4.5c1.2,1.2,0.2,2.5,0.9,3.7
	c0.8,0,1.1-0.6,1.5-1c3.7-4.1,8.7-2.5,11,0.9c2.1,2.9,3,6.2,3.1,9.6c0.1,3.9-0.7,7.6-3.2,10.8c-2.5,3.4-5.8,4.3-10.1,2.8
	c-1.7-0.6-1.9-0.4-1.8,1.3c0.1,2.3,0.1,4.6,0.2,6.8c0,2.3,0.5,2.8,2.9,3.2C87.2,96.8,87.5,97,87.2,97.8z M94.6,73.2
	c0.1-1.2,0-2.6-0.4-4.1c-0.5-2.3-1.2-4.5-2.9-6.3c-2.4-2.5-6.6-1.9-8.1,1.1c-0.5,1-0.5,2.1-0.4,3.2c0.1,4.2,0.3,8.5,0.4,12.7
	c0.1,2.6,1.6,4.5,4.1,5c2.2,0.5,4.2-0.6,5.5-3C94.2,79.2,94.6,76.3,94.6,73.2z"/>
<path class="st0" d="M6.3,51.5c-1,0-2.1,0-3.1,0c-0.5,0-1,0-1-0.6c0-0.4,0.4-0.6,0.8-0.7c3-0.8,3.1-0.9,3-3.7
	c-0.2-8.7-0.5-17.4-0.7-26c-0.1-2.6-0.4-2.8-3.3-2.9c-0.5,0-1.1,0.2-1.3-0.5c-0.1-0.6,0.4-0.8,0.9-1c2.7-1,5.7-1.2,8.5-1.6
	c1.8-0.2,3.5-0.6,5.3-0.3c3.6,0.5,5.8,2.4,7.2,5.4c1.5,3.4,1.8,6.9,1.9,10.4c0,2-0.1,4.2-0.5,6.3c-0.5,2.6-1,5.1-2.1,7.5
	c-2,3.9-4.9,6.8-10.1,7.1C9.9,51,8.1,51.3,6.3,51.5z M9.8,40.8c0.1,1.5-0.1,3.7,0.2,5.9c0.2,1.1,0.4,2.1,1.7,2.4
	c1.5,0.4,3.3,0.3,4.4-0.7c2.3-2,3.9-4.6,4.2-7.6c0.5-3.7,1-7.4,0.9-11.2c-0.2-3.9-0.6-7.7-2.6-11.3c-0.6-1.2-1.5-2-2.8-2.6
	c-2.7-1.2-6.7-0.2-6.8,3.6c0,1.4,0.3,2.7,0.3,4C9.3,28.9,9.8,34.5,9.8,40.8z"/>
<path class="st0" d="M16.7,78.2c0-0.8,0-1.3,0.9-1.3c1.9-0.1,3.6-0.7,5.3-1.5c0.4-0.2,0.8-0.5,1.2,0c0.3,0.4,0,0.8-0.3,1
	c-2.1,1.2-1.5,3.1-1.4,4.8c0.1,3,0.2,6.1,0.2,9.1c0,2-1.7,3.2-3.3,4.1c-4.5,2.3-7.5,1.4-10.5-2.1c-3.2-3.7-4.6-7.9-4.9-12.6
	c-0.3-5,0.5-9.7,3.1-14.1c1.2-2,2.8-3.8,4.4-5.5c2.1-2.1,5.2-2.9,8.4-2.7c1.1,0.1,1.6,0.5,1.7,1.7c0.2,2,0.1,4.1,0.3,6.1
	c0,0.6,0.1,1.2-0.7,1.6c-0.9-0.3-0.9-1.2-0.9-1.8c-0.2-1.4-0.9-2.6-1.4-3.9c-0.8-2-1.7-2.3-3.9-1.6c-1.8,0.6-3,1.7-3.6,3.3
	c-2,5.5-3.4,11.2-2.7,17.1c0.4,3.7,1.3,7.4,2.9,10.9c0.4,0.9,0.9,1.5,1.7,2.1c1.1,0.8,2.1,1.5,3.7,0.9c1.8-0.6,2.6-1.7,2.9-3.3
	c0.6-3.4-0.2-6.8,0-10.2C19.8,78.5,18.4,78.2,16.7,78.2z"/>
<path class="st0" d="M76.7,83.4c-2.1,1.6-4,2.7-6.4,3.3c-0.6-1.3,0.3-2.7-0.8-3.8c-0.9,0.3-1.4,1-2,1.5c-1.8,1.5-3.8,2.7-6.4,2.6
	c-3.1-0.1-5.4-1.9-5.9-4.6c-0.3-1.4-0.3-2.9-0.3-4.3c-0.2-4.6-0.1-9.3-0.6-13.9c-0.2-1.5-0.9-2.3-2.5-2.3c-0.5,0-1-0.2-1.2-0.7
	c0.2-0.6,0.7-0.6,1.2-0.6c1.5,0,3,0.1,4.5,0c1.4-0.1,1.8,0.4,1.8,1.6c0.1,5.2,0.2,10.3,0.3,15.5c0,1.4,0.2,2.9,0.7,4.3
	c0.7,2.3,2.5,3.2,5.1,2.8c3.3-0.6,5.6-2.9,5.5-5.8c0-4.7-0.2-9.4-0.4-14.1c-0.1-2.3-0.4-2.5-3.1-3.3c-0.4-0.1-0.8-0.2-0.8-0.7
	c0-0.5,0.5-0.5,0.9-0.5c1.6,0,3.2-0.1,4.8-0.1c1.1,0,1.6,0.3,1.7,1.4c0.2,6.3,0.4,12.6,0.6,18.9C73.6,82.7,73.6,82.7,76.7,83.4z"/>
<path class="st0" d="M100.8,38c-0.1,0.1-0.2,0.3-0.3,0.4c-2,2.2-4.7,2.3-6.7,0.1c-1.8-1.9-2.5-4.2-3.2-6.5
	c-1.3-4.6-0.9-9.1,1.2-13.5c0.3-0.6,0.6-1.1,1-1.6c2.1-2.8,5.3-2.8,7.5-0.1c0.2,0.3,0.4,0.5,0.6,0.8v-3c-1.2-0.6-2.5-0.9-3.9-0.9
	c-2.5,0.1-4.6,0.8-6.3,2.3C85,21,84.4,31.3,89.5,37.5c3.1,3.8,7.6,4.8,11.3,3.1V38z"/>
<path class="st0" d="M74,34.2c1.2,1.1,0.4,2.1,0,2.9c-1.1,2.7-3.4,4.4-6.5,4.9c-3.2,0.5-6-0.5-7.9-2.9c-3.2-4-4-8.5-3.4-13.3
	c0.3-2.6,1.1-5,2.6-7.3c2.3-3.4,5.8-4.8,9.5-3.9c3.6,0.8,4.8,3.4,5.6,6.2c0.4,1.3,0.4,2.7,0.4,4.1c-0.1,1.6-0.4,2-2.2,2
	c-3.5,0.1-7,0.3-10.5,0.3c-1.3,0-1.5,0.5-1.5,1.5c0.1,2.9,0.7,5.7,2.5,8.2c2.6,3.7,7.2,3.5,9.7-0.2C72.8,36,73.1,35,74,34.2z
	 M64.5,26c0,0,0-0.1,0-0.1c0.9,0,1.7,0,2.6,0c2.1-0.1,2.9-0.7,3.5-2.6c0.4-1.5-0.1-2.8-0.5-4.2c-0.5-1.6-1.3-3.1-3.4-3.3
	c-2.2-0.3-3.5,0.9-4.6,2.4c-1.2,1.6-1.8,3.4-2,5.3c-0.3,2.3,0,2.5,2.5,2.5C63.3,26,63.9,26,64.5,26z"/>
<path class="st0" d="M51.6,73.5c-0.2,4.8-1.4,8.9-4.9,12.3c-1.1,1.1-2.5,1.7-4.1,2.2c-2.2,0.6-4.6-0.3-5.8-2.3
	c-1.5-2.6-2.5-5.3-2.4-8.3c0.1-1.7-0.3-3.4-0.1-5.2c0.5-3.1,1-6.3,3-8.9c2.4-3.2,5.8-4.4,9.5-1C50.3,65.4,51.4,69.5,51.6,73.5z
	 M47.7,74c0-4-1.1-7.6-3.2-10.9c-0.6-1-1.7-1.7-2.9-1.6c-1.2,0.1-2,0.9-2.5,2c-1.8,3.4-2,7-2.3,10.7c-0.1,1.7,0.5,3.3,0.6,5
	c0.2,2.3,0.8,4.5,2.2,6.4c1.1,1.5,2.7,1.5,4.2,0.3c0.9-0.7,1.5-1.5,1.9-2.5C47,80.4,47.6,77.1,47.7,74z"/>
<path class="st0" d="M86.9,40.9c-3.6,0.3-7.2-0.1-10.7,0.5c-0.5-1.2,0.3-1.3,1-1.4c1.7-0.2,2.3-1.1,2.3-2.5
	c-0.2-10.3-0.6-20.6-1-30.8c-0.1-1.8-0.5-2.1-3.3-2.5c-0.2-0.3-0.2-0.6,0.1-0.8c1-0.8,5.6-2.3,6.6-2.2c0.3,1.3,0.4,2.7,0.4,4.1
	c0.2,9,0.4,18.1,0.7,27.1c0.1,1.6,0.3,3.3,0.3,4.9c0,1.6,0.7,2.3,2.5,2.5C86.4,39.9,87.1,39.8,86.9,40.9z"/>
<path class="st0" d="M46,42.8c-0.9-1-1-2.3-1.3-3.3c-1.6-5.6-3.6-11.1-4.6-16.7c-0.2-0.8-0.6-1.6-0.7-2.4c-0.1-0.6-0.6-1.1-1.5-1
	c-0.5,0.1-1-0.1-1-0.6c0-0.4,0.2-0.9,0.9-1c2-0.4,4.1-0.9,6.1-1.4c0.5-0.1,1.1-0.2,1.2,0.5c0.1,0.6-0.3,0.7-0.8,0.8
	c-2.2,0.7-2.3,1-1.8,3.1c1,4.2,2.6,8.3,3.6,12.5c0.1,0.6,0.6,1.1,1.1,2c1.3-4.2,2.6-8,3.7-11.8c0.4-1.4,1.2-2.8,1.2-4.3
	c0-1.6-0.3-2-2.1-2.1c-0.6,0-1.4,0.2-1.4-0.7c0-0.7,0.8-0.7,1.3-0.8c2.3-0.1,4.6-0.1,6.9-0.2c0.6,0,0.8,0.2,0.8,1
	c-3.6,0.3-3.8,3-4.6,5.4c-1.9,6.1-3.9,12.2-5.6,18.3C46.9,41.2,47.3,42.3,46,42.8z"/>
<path class="st0" d="M28.4,32.4c-0.2,3.4-0.2,6.9,1.8,10c0.9,1.5,2.1,1.5,3.5,0.3c1.3-1.1,2.2-2.3,2.3-3.9c0-0.7,0.6-1.1,0.8-1.7
	c0.6,1.2,0.3,3.2-0.7,4.8c-0.8,1.4-1.9,2.5-3.1,3.5c-1.6,1.3-3.7,0.9-5-0.8c-0.7-0.9-1-1.9-1.3-3c-1-3.5-0.9-7.1-0.7-10.7
	c0.1-2.6,0.9-5.1,1.9-7.4c0.8-1.8,1.6-4,4.1-4.8c1.6-0.5,3.1-0.3,3.8,1.1c1.5,2.9,1.6,6,1.3,9.1c-0.1,0.6-0.7,1-1.4,1.2
	C33.3,30.9,30.9,31.7,28.4,32.4z M28.3,31.1c1.8-0.5,3.2-0.9,4.6-1.4c0.7-0.2,1.5-0.7,1.7-1.3c0.6-2.5,0.8-5-0.5-7.4
	c-0.7-1.3-2-1.4-3-0.2C28.5,23.8,28.7,27.3,28.3,31.1z"/>
<path class="st0" d="M23.9,69.6c1.5-1.8,3-3.4,4-5.7c0.7,1.8-0.2,3.4,0.7,4.8c1.1-1.1,0.7-2.6,1.5-3.8c0.7-0.9,1.4-1.8,2.6-1.6
	c1.2,0.1,1.3,1.1,1.5,2.1c0.2,1,0,1.8-0.2,2.7c-0.3,1-0.8,1.5-2,1.5c-0.8-1.1-0.1-2.3-0.6-3.5c-1.2,0.1-1.3,1-1.6,1.7
	c-1.9,4.5-1.2,9.2-1.4,13.8c-0.1,1.7,0.3,3.3,0.1,5c-0.2,1.6,0.8,2.6,2.3,2.7c0.2,0.4,0.2,0.9-0.3,1c-1.9,0.6-3.7,1.2-5.6,1.8
	c-0.4,0.1-0.6,0.1-0.8-0.2c-0.2-0.3,0-0.6,0.3-0.7c2.5-1.3,2.1-3.4,2-5.5c-0.1-2.4-0.3-4.7-0.2-7.1c0.1-2.4-0.4-4.8-0.1-7.2
	C26.1,70.3,25.9,69.3,23.9,69.6z"/>
</svg>
